<svg width="216" height="135" viewBox="0 0 216 135" fill="none" xmlns="http://www.w3.org/2000/svg">
<path fill-rule="evenodd" clip-rule="evenodd" d="M59.0395 86.2373C46.2694 105.641 30.3491 111.114 19.0717 111.114C8.2931 111.114 0 106.471 0 98.3428C0 88.5594 12.936 79.2711 24.2134 79.2711C29.5198 79.2711 34.1639 82.5896 34.1639 87.3984C34.1639 91.8766 30.0173 98.8391 19.2388 98.8391C15.0922 98.8391 11.9421 97.5147 11.9421 97.5147C11.9421 97.5147 15.4239 98.1769 18.4095 98.1769C27.5319 98.1769 31.6772 92.7035 31.6772 87.7288C31.6772 80.7626 25.0439 80.1004 23.717 80.1004C12.7714 80.1004 3.31847 88.7253 3.31847 98.1769C3.31847 106.636 12.2738 110.448 19.0729 110.448C25.7062 110.448 38.9739 108.956 52.9051 88.5594C61.5275 76.121 72.9695 63.352 90.0521 59.3701C75.6233 64.8436 71.1462 67.6632 59.0395 86.2373Z" fill="black"/>
<path fill-rule="evenodd" clip-rule="evenodd" d="M47.5959 101.992C52.4059 102.158 59.5367 96.8495 59.5367 92.2065C59.5367 89.221 56.8829 88.5588 55.7231 88.5588C46.7678 88.5588 40.4662 97.68 40.4662 102.655C40.4662 108.294 45.7726 109.951 48.4264 109.951C57.7134 109.951 69.9848 99.0069 69.9848 90.3821C69.9848 85.5733 67.4981 85.405 65.6736 85.405C64.3467 85.405 63.6832 85.7379 63.6832 86.2355C63.6832 86.8977 64.6784 87.2319 65.176 87.2319C71.3129 87.2319 82.2573 77.7778 82.2573 69.6518C82.2573 63.8466 76.951 63.682 75.4582 63.682C65.8394 63.682 59.8696 71.4762 54.0645 79.4364C48.4264 87.2331 37.8112 97.5154 25.374 100.501C38.1442 95.8555 46.6019 86.4026 52.5717 78.112C58.3769 70.3164 67.6639 62.1904 77.4486 62.1904C80.4341 62.1904 85.7404 63.849 85.7404 69.4871C85.7404 77.6131 71.8105 87.8954 65.6736 87.8954C63.0198 87.8954 62.6881 86.899 62.6881 86.2367C62.6881 85.0757 65.1748 84.0818 67.1663 84.0818C69.9848 84.0818 73.9655 85.7404 73.9655 90.3833C73.9655 97.8459 61.6929 110.781 47.7629 110.781C42.7871 110.781 38.4747 107.63 38.4747 103.321C38.4747 97.0165 46.9324 87.7307 56.5512 87.7307C59.7026 87.7307 61.5258 90.054 61.5258 91.7114C61.527 95.6884 55.3901 102.49 47.5959 101.992ZM174.797 98.5081C174.629 98.5081 174.464 98.6739 174.298 98.8398C168.659 104.479 163.354 108.626 160.203 108.626C158.045 108.626 157.217 107.963 157.217 105.31C157.217 104.811 157.217 104.313 157.383 103.817C163.353 103.651 171.809 99.6703 171.809 95.3579C171.809 94.5298 171.313 93.2029 168.992 93.2029C165.342 93.2029 159.703 96.8507 156.221 100.666C150.581 107.133 146.269 108.79 145.276 108.79C144.28 108.79 142.953 108.128 145.608 104.478L153.733 93.5334H149.755L145.774 98.8386C140.466 105.971 136.322 108.955 134.165 108.955C133.004 108.955 131.677 108.127 134.331 104.477L142.624 93.5322H138.477C133.999 99.502 131.677 101.991 120.897 108.293L131.844 93.5322H127.863L126.205 96.0201C125.873 93.6968 124.381 93.0346 122.058 93.0346C118.077 93.0346 113.103 96.1848 109.951 99.6667C104.977 104.974 99.5033 108.954 96.5178 108.954C94.6945 108.954 93.8652 108.457 93.8652 106.134C93.8652 105.306 94.0311 104.475 94.197 103.813C100.498 103.813 107.465 98.3398 107.465 95.3542C107.465 94.5262 106.967 93.3651 104.645 93.3651C100.498 93.3651 93.8665 98.008 91.2114 102.486C88.2259 100.994 89.3882 96.847 94.5287 93.531H89.7199L79.2718 104.641C82.2573 100.497 84.744 96.847 84.744 95.5201C84.744 94.5262 84.0806 93.3651 82.4232 93.3651C80.4329 93.3651 73.7996 97.6775 70.6482 101.49C76.4522 96.3494 81.0963 94.3578 81.5939 94.3578C82.5891 94.3578 82.2573 95.3542 81.7598 96.0189L71.3117 109.949H75.4582L87.7308 97.0129C87.2332 99.5008 88.3942 101.99 90.8809 103.149C90.2175 104.145 89.8858 105.306 89.8858 106.299C89.8858 108.787 92.2078 110.279 94.6958 110.279C97.8459 110.279 102.324 107.626 106.637 103.978C106.139 104.974 105.973 105.967 105.973 106.632C105.973 108.124 107.134 110.279 109.788 110.279C112.442 110.279 115.924 108.621 118.909 106.299L115.427 111.442C114.763 111.773 114.1 112.272 113.27 112.603C100.831 119.566 91.048 125.702 91.048 130.679C91.048 132.338 92.0432 133.499 94.1982 133.499C99.6704 133.499 108.129 125.537 117.416 112.934L119.74 109.949C126.041 106.467 129.854 103.979 133.338 100.497L131.845 102.486C127.699 108.126 131.845 109.783 133.668 109.783C135.989 109.783 138.809 107.794 141.463 105.305C140.635 108.124 142.293 109.783 144.448 109.783C146.936 109.783 150.75 107.129 153.9 104.31C153.581 104.924 153.411 105.606 153.404 106.299C153.404 109.118 155.227 110.445 157.55 110.445C159.705 110.445 163.189 108.952 166.505 106.632C168.329 105.305 170.32 103.812 172.311 101.989L166.837 109.949H170.487L195.861 73.297C194.367 74.7935 184.912 88.2259 174.797 98.5081ZM167.166 94.3615C168.992 94.3615 168.825 95.3579 168.825 95.8543C168.825 99.0069 162.689 102.986 157.549 103.151C158.876 98.1776 164.347 94.3615 167.166 94.3615ZM102.49 94.3615C104.315 94.3615 104.315 95.8543 104.315 96.1872C104.315 100.001 97.6813 102.985 94.3628 103.151C95.6897 98.0117 100.333 94.3615 102.49 94.3615ZM112.108 108.46C110.949 108.46 109.953 108.294 109.953 105.806C109.953 100.666 115.922 94.1969 120.401 94.1969C123.386 94.1969 123.717 96.1885 123.717 97.1824C123.717 103.152 115.592 108.46 112.108 108.46ZM110.118 119.074C104.978 126.37 98.5094 133.004 94.5299 133.004C93.5335 133.004 92.7054 132.672 92.7054 131.511C92.7054 126.37 102.822 119.404 113.6 113.269C113.933 113.103 114.099 113.103 114.431 112.937L110.118 119.074Z" fill="black"/>
<path fill-rule="evenodd" clip-rule="evenodd" d="M193.702 88.7252H155.726L157.218 86.5677C158.046 87.3982 158.545 87.5641 161.362 87.5641C164.016 87.73 193.702 88.5605 193.702 88.5605C194.034 88.5605 194.034 88.7252 193.702 88.7252ZM206.307 94.5303C204.98 95.5243 201.33 101.328 194.367 101.328C192.043 101.328 190.386 100.001 190.386 97.6805C190.386 91.8753 199.011 87.3983 205.311 87.3983C208.296 87.3983 213.602 87.8946 213.602 94.695C213.602 103.65 205.145 109.62 196.686 109.62C190.881 109.62 187.399 107.297 180.599 107.297C172.308 107.297 169.323 111.277 168.327 113.767C168.824 112.606 171.809 108.79 179.44 108.79C184.745 108.79 189.224 111.277 194.697 111.277C203.652 111.277 215.924 103.15 215.924 94.5279C215.924 90.0496 213.27 86.4006 206.637 86.4006C198.509 86.4006 188.56 92.5363 188.56 98.5073C188.56 100 189.887 102.488 194.031 102.488C200.336 102.49 205.311 95.8548 206.307 94.5303ZM126.37 123.717C126.37 121.894 125.54 122.224 125.54 122.059H131.013C135.326 122.059 135.988 125.706 135.988 126.867C135.988 129.687 133.171 131.346 131.013 131.346H125.54C125.54 131.346 126.37 131.511 126.37 129.687V123.717ZM129.688 122.39H129.025C128.694 122.39 128.527 122.556 128.527 122.723V130.019C128.527 130.517 128.695 131.015 129.191 131.015H130.019C131.845 131.015 133.67 129.522 133.67 126.703C133.668 125.706 133.171 122.39 129.688 122.39ZM146.436 125.54C146.935 125.044 147.763 124.712 148.759 124.712C150.086 124.712 151.91 125.873 151.91 128.028C151.91 130.183 150.086 131.51 148.262 131.51C147.597 131.51 146.935 131.344 146.436 130.848V133.668C146.436 135.16 146.935 134.995 147.101 134.995H143.785C143.785 134.995 144.447 135.16 144.447 133.668V126.536C144.447 125.375 143.785 125.375 143.619 125.375L146.436 124.712V125.54ZM146.436 130.185C146.602 130.683 146.935 131.015 147.597 131.015C148.758 131.015 149.589 130.019 149.589 128.195C149.589 126.372 148.592 125.376 147.763 125.376C147.267 125.376 146.769 125.707 146.436 126.04V130.185ZM163.022 129.853C163.022 131.511 163.685 131.18 163.685 131.346H160.369C160.534 131.18 161.031 131.511 161.031 129.853V126.371C161.031 125.21 160.534 125.21 160.369 125.21L163.022 124.548V129.853ZM161.861 122.889C162.358 122.889 162.855 122.556 162.855 122.224C162.855 121.893 162.359 121.562 161.861 121.562C161.362 121.562 160.865 121.894 160.865 122.224C160.865 122.555 161.362 122.889 161.861 122.889ZM159.207 130.352C159.207 131.014 159.704 131.014 159.87 131.014L157.384 131.346V130.517C156.885 131.18 155.891 131.511 155.061 131.511C152.575 131.511 152.74 129.688 152.74 128.694V126.206C152.74 124.714 152.241 124.879 152.075 124.879H154.729V129.358C154.729 130.85 155.56 131.016 155.726 131.016C156.057 131.016 157.05 130.85 157.384 130.02V126.372C157.384 124.714 156.72 124.879 156.72 124.879H159.207V130.352ZM143.619 127.367H138.476V127.699C138.476 130.02 139.803 130.849 140.964 130.849C141.792 130.849 142.622 130.353 143.119 129.853C142.622 131.014 141.46 131.844 139.969 131.844C137.645 131.844 136.321 129.853 136.321 128.36C136.321 125.875 138.972 124.546 140.299 124.546C141.463 124.548 143.452 125.21 143.619 127.367ZM140.3 125.044C139.142 125.044 138.808 126.205 138.642 127.033H141.958C141.959 125.875 141.131 125.044 140.3 125.044ZM169.821 129.687C169.821 130.848 168.66 131.844 166.836 131.844C165.839 131.844 165.177 131.676 164.515 131.18V130.019C164.847 130.849 165.674 131.511 166.67 131.511C167.501 131.511 168.163 131.015 168.163 130.353C168.163 129.688 167.332 129.356 166.34 128.86C165.509 128.527 164.182 128.195 164.182 126.703C164.182 125.542 165.343 124.714 167.168 124.714C167.666 124.714 168.329 124.714 169.325 125.21V126.371C168.329 125.044 167.333 125.044 167.002 125.044C166.34 125.044 165.841 125.54 165.841 126.04C165.841 126.703 166.34 127.034 167.666 127.533C167.997 127.698 169.821 128.194 169.821 129.687ZM175.957 131.676C176.123 131.51 176.456 131.51 176.456 130.352V123.385C176.456 122.059 175.957 122.059 175.791 121.893L178.445 121.228V130.352C178.445 131.51 178.941 131.51 179.107 131.676H175.957ZM189.724 131.511C190.718 129.191 193.537 124.216 195.36 121.562H189.391C189.225 121.562 188.894 121.562 188.563 121.229L187.566 123.552C187.898 123.221 188.397 123.056 188.893 123.056H193.205C192.874 123.553 191.547 126.042 190.055 128.361C189.059 130.02 188.563 131.015 188.23 131.511H189.724ZM182.093 131.511C183.254 129.191 185.908 124.216 187.732 121.562H181.927C181.595 121.562 181.265 121.562 180.933 121.229L180.102 123.552C180.434 123.221 180.767 123.056 181.263 123.056H185.576C185.244 123.553 183.917 126.042 182.59 128.361C181.429 130.02 180.932 131.015 180.599 131.511H182.093ZM196.853 131.346C198.18 131.346 199.341 130.185 199.341 128.195C199.341 126.869 198.511 125.21 197.018 125.21C196.19 125.21 195.359 125.706 194.863 126.371L195.693 121.562H199.672C199.838 121.562 200.336 121.562 200.833 121.229L199.836 123.055H196.023L195.524 125.376C196.252 124.858 197.118 124.569 198.012 124.548C200.169 124.548 201.494 126.371 201.494 127.864C201.494 130.185 199.339 131.677 197.015 131.677C196.684 131.677 195.523 131.677 194.364 131.181L194.196 129.854C195.36 131.346 196.356 131.346 196.853 131.346ZM181.265 0L179.772 0.663449L167.831 12.1067C166.835 11.4433 165.839 11.2774 164.681 11.4433C162.358 11.9408 160.7 14.5934 161.197 17.4131C161.362 18.0765 161.695 18.74 162.027 19.2375L125.209 56.3857C123.386 54.3954 120.731 53.4002 118.246 53.8978C116.585 54.2295 115.258 55.2247 114.265 56.3857L88.7247 36.4847C89.221 35.3237 89.554 33.831 89.221 32.3382C88.7247 28.8551 85.7392 26.533 82.7537 27.1965C81.9243 27.3623 81.2609 27.6941 80.5975 28.1916L69.3201 20.2315L67.9932 20.0656L68.4907 21.5584L78.4412 31.5089C78.2754 32.5041 78.1095 33.4992 78.4412 34.659C78.9388 38.1421 81.9231 40.4642 84.9099 39.8008C85.905 39.469 86.7331 39.1373 87.3966 38.4739C87.7283 37.9775 87.8942 37.9775 88.06 38.1421C88.06 38.1421 97.5129 46.434 100.83 49.2537C104.147 52.0721 109.455 56.2186 110.449 57.0479C111.445 58.0431 112.772 59.0383 112.772 59.0383C112.273 60.5311 112.108 62.3555 112.441 64.0129C113.434 68.8229 117.581 71.8072 121.728 70.9779C125.874 70.1486 128.525 65.6703 127.533 60.8616C127.367 60.0322 127.034 59.2029 126.536 58.3736L162.855 20.3961C163.852 21.2254 165.178 21.723 166.505 21.3913C168.993 20.8937 170.652 18.2399 169.987 15.5861C169.987 15.0885 169.821 14.7568 169.656 14.4251L180.768 1.4903L181.265 0ZM83.7488 36.9823C81.9243 37.3153 80.0999 35.8225 79.7694 33.6663C79.4364 31.3442 80.5987 29.3539 82.4232 28.8563C84.2476 28.5246 86.0709 30.0173 86.4026 32.1736C86.9002 34.4944 85.5733 36.4847 83.7488 36.9823ZM122.224 65.8386C120.401 66.1704 118.742 64.8435 118.41 62.8531C118.077 60.8628 119.238 59.0395 120.896 58.7066C122.554 58.209 124.214 59.5359 124.711 61.525C125.044 63.5166 123.883 65.5069 122.224 65.8386ZM166.836 19.2375C165.343 19.5693 163.85 18.4082 163.52 16.5838C163.188 14.7593 164.182 13.1006 165.675 12.7702C167.168 12.4372 168.66 13.5995 168.993 15.4239C169.324 17.2472 168.329 18.9058 166.836 19.2375Z" fill="black"/>
<path fill-rule="evenodd" clip-rule="evenodd" d="M121.894 64.6774C123.055 64.5116 123.717 63.1847 123.552 61.8578C123.221 60.5309 122.225 59.7028 121.064 59.8674C119.906 60.0333 119.241 61.3602 119.406 62.6871C119.739 64.014 120.731 65.0092 121.894 64.6774Z" fill="black"/>
</svg>
