<svg width="779" height="114" viewBox="0 0 779 114" fill="none" xmlns="http://www.w3.org/2000/svg">
<path d="M381.3 61.4998L395 25.9998L409.5 61.4998H381.3ZM441.1 101.9L399.6 0.299805H398.6L359.8 100.8C357.6 106.3 356.3 108.8 353.4 111.4H366.2C365.2 109.9 364 106.7 365.8 101.8L379.2 67.1998H412L425.7 100.8C428 106.3 426.7 109.8 425.7 111.4H447.3C444.3 109 443 106.7 441.1 101.9ZM71.9996 53.6998C73.2996 55.5998 75.9996 58.6998 75.9996 66.2998V102.7C70.6996 106.1 62.9996 107.5 55.9996 107.5C28.7996 107.5 15.0996 82.4998 15.0996 54.6998C15.0996 26.8998 30.0996 5.7998 56.3996 5.7998C63.9996 5.7998 70.2996 7.29981 75.3996 9.19981C80.9996 11.2998 85.3996 15.0998 87.3996 17.3998V3.7998C86.7996 3.9998 85.9996 4.09981 85.1996 4.09981C83.8996 4.09981 82.4996 3.89981 80.7996 3.39981C74.6996 1.79981 66.1996 0.299805 56.3996 0.299805C23.6996 0.299805 0.0996094 23.2998 0.0996094 55.6998C0.0996094 88.0998 19.2996 113 55.9996 113C64.2996 113 71.7996 111.3 77.8996 109.3C79.8996 108.7 81.4996 108.4 83.0996 108.4C85.5996 108.4 87.6996 109.2 90.1996 110.4V65.9998C90.1996 58.4998 91.9996 55.1998 92.6996 53.6998H71.9996ZM209.7 51.2998V7.49981H218.4C225.3 7.49981 231.3 8.49981 235.6 11.4998C240.4 14.8998 243.4 19.7998 243.4 27.9998C243.4 34.8998 241.7 40.5998 238.4 44.2998C233.6 49.6998 227.4 51.1998 218.4 51.1998H209.7V51.2998ZM223 56.3998L245.5 96.4998C253.5 110.6 262.1 113.2 269.2 113.2C272.2 113.2 276.4 112.6 277.7 111.5C274.5 110.5 267.2 108.3 257.8 91.5998L237 54.3998C241.2 53.0998 247 49.8998 251 44.9998C254.5 40.6998 257 34.8998 257 27.4998C257 18.5998 254 13.6998 248.5 9.09981C242.3 3.89981 231.3 1.99981 219.7 1.99981H193C194.6 4.19981 196 7.09981 196 17.4998V95.8998C196 106.3 194.6 109.2 193 111.4H212.6C211 109.2 209.6 106.3 209.6 95.8998V56.3998H223ZM596.1 7.89981C606 7.89981 609.2 9.2998 611.9 11.7998V2.09981H547.6C549.2 4.29981 550.6 7.1998 550.6 17.5998V95.9998C550.6 106.4 549.2 109.3 547.6 111.5H567.2C565.6 109.3 564.2 106.4 564.2 95.9998V55.4998H592.7C599.4 55.4998 602.2 56.1998 603.7 57.3998V47.7998C602.2 48.9998 599.4 49.6998 592.7 49.6998H564.2V7.89981H596.1ZM762.7 7.89981C772.6 7.89981 775.8 9.2998 778.5 11.7998V2.09981H714.2C715.8 4.29981 717.2 7.1998 717.2 17.5998V95.9998C717.2 106.4 715.8 109.3 714.2 111.5H733.8C732.2 109.3 730.8 106.4 730.8 95.9998V55.4998H759.3C766 55.4998 768.8 56.1998 770.3 57.3998V47.7998C768.8 48.9998 766 49.6998 759.3 49.6998H730.8V7.89981H762.7Z" fill="black"/>
</svg>
