<svg width="261" height="105" viewBox="0 0 261 105" fill="none" xmlns="http://www.w3.org/2000/svg">
<path d="M0.461914 61.7656V103.837H8.63706V86.0416H29.6591V103.837H37.7748V61.7727H29.6591V77.4357H8.63706V61.7656H0.461914Z" fill="#171717"/>
<path d="M79.9788 61.7754V83.7259C79.9788 90.1039 79.3272 96.8688 68.9511 96.8688C58.5732 96.8688 57.8364 90.2494 57.8364 83.7259V61.7754H49.7031V84.2476C49.7031 94.2825 52.4864 105 68.9511 105C85.4149 105 88.1834 94.127 88.1834 84.2476V61.7754H79.9788Z" fill="#171717"/>
<path d="M147.944 61.7725V103.821H176.112V95.3128H156.114V61.7725H147.944Z" fill="#171717"/>
<path d="M201.013 96.6765C193.068 96.6765 186.844 90.5263 186.844 82.6747C186.844 74.8241 193.068 68.6735 201.013 68.6735C208.956 68.6735 215.182 74.8241 215.182 82.6747C215.182 90.5263 208.956 96.6765 201.013 96.6765ZM201.014 60.5723C188.474 60.5723 178.645 70.2838 178.645 82.6782C178.645 95.0694 188.474 104.775 201.014 104.775C213.555 104.775 223.38 95.0694 223.38 82.6782C223.38 70.2838 213.555 60.5723 201.014 60.5723Z" fill="#171717"/>
<path d="M226.708 61.7725V70.3291H239.827V103.83H248.009V70.3291H260.806V61.7725H226.708Z" fill="#171717"/>
<path d="M121.376 96.1546H107.19L107.187 85.5913H121.425C125.642 85.5913 127.471 87.2488 127.471 91.0223C127.471 93.8493 126.324 96.1546 121.376 96.1546ZM120.114 69.4793C124.665 69.4793 126.067 71.144 126.067 73.9117C126.067 76.6815 124.85 78.6532 120.284 78.6532L107.187 78.6574V69.4793H120.114ZM130.924 81.7762C133.45 79.7889 134.891 76.8955 134.891 73.3906C134.891 69.8964 133.489 61.7725 120.518 61.7725H99.0693V103.83H121.879C131.062 103.83 136.334 99.1594 136.334 91.033C136.334 87.0749 134.46 83.9053 130.924 81.7762Z" fill="#171717"/>
<path d="M158 0H151.409C151.409 6.59793 148.863 10.6274 141.908 13.8174V0H135.275V16.2499C133.642 16.7436 131.866 17.2264 129.931 17.7062H129.926C128.474 18.0582 127.074 18.4268 125.723 18.8124V0H119.091V21.0438C108.878 25.1232 103 31.1944 103 42H109.591C109.591 35.4024 112.136 31.3734 119.091 28.1826V42H125.723V25.7506C127.357 25.2568 129.134 24.773 131.069 24.2928H131.074C132.525 23.9412 133.924 23.5737 135.275 23.1881V42H141.908V20.957C152.122 16.8772 158 10.806 158 0Z" fill="#171717"/>
</svg>
