<svg width="169" height="44" viewBox="0 0 169 44" fill="none" xmlns="http://www.w3.org/2000/svg">
<path fill-rule="evenodd" clip-rule="evenodd" d="M30.2711 0C30.4443 0.739583 30.6025 1.48333 30.7938 2.2184C31.3067 4.18924 31.8345 6.15625 32.3544 8.12569C33.0714 10.8431 33.7895 13.5604 34.5024 16.2792C34.9533 18 35.3937 19.7236 35.8414 21.4451C36.3773 23.5063 36.9163 25.5663 37.4591 27.6476H34.0651C32.4627 21.3316 30.861 15.0174 29.2468 8.65417C25.7346 15.7358 22.2452 22.7712 18.7209 29.8774C15.2816 22.9642 11.8597 16.0858 8.38066 9.09201C6.69533 15.3441 5.03892 21.4882 3.37345 27.6667H0C0 27.5278 0 27.3889 0 27.25C0.0564448 27.1333 0.133447 27.0222 0.16585 26.8993C0.837961 24.3542 1.50554 21.8076 2.17278 19.2611C3.00865 16.0712 3.84661 12.8816 4.67795 9.69063C5.5194 6.46146 6.35387 3.23021 7.19149 0H7.35873C7.46326 0.263542 7.54932 0.535764 7.67475 0.788889C9.47924 4.425 11.2862 8.05937 13.098 11.6917C14.3429 14.1872 15.5976 16.6781 16.8456 19.1722C17.4651 20.4104 18.0791 21.6514 18.7338 22.9677C22.5417 15.2757 26.3228 7.63785 30.1039 0H30.2711ZM64.7724 20.7908C64.8944 21.0919 65.002 21.3377 65.0947 21.5891C65.4714 22.6113 66.1463 23.4065 67.0006 24.0578C68.1326 24.921 69.4365 25.2846 70.8403 25.436C72.0803 25.57 73.2789 25.5058 74.4534 25.0891C75.8126 24.6072 76.9401 23.8127 77.661 22.5478C78.3175 21.396 78.207 19.8075 77.2192 18.8065C76.2374 17.8117 75.0071 17.295 73.7141 16.9231C71.8172 16.378 69.8967 15.9141 67.9877 15.4103C66.7247 15.0769 65.5641 14.5294 64.6366 13.5999C63.8502 12.812 63.3352 11.8808 63.2104 10.729C62.9627 8.44014 63.8184 6.67833 65.6452 5.34014C66.8964 4.42347 68.3191 3.92799 69.849 3.76306C70.8218 3.65854 71.8089 3.55785 72.7817 3.6075C74.5628 3.69778 76.268 4.12104 77.7593 5.17104C78.9725 6.02521 79.8042 7.18181 80.3989 8.51931C80.4345 8.59882 80.3975 8.7825 80.3338 8.82278C79.5638 9.31062 78.7826 9.78111 78.0558 10.2242C77.6676 9.55646 77.3199 8.89604 76.9133 8.27417C76.2889 7.31861 75.314 6.79917 74.2618 6.52625C73.3555 6.29118 72.3914 6.17694 71.4542 6.18424C70.0145 6.19535 68.6239 6.54465 67.4515 7.43319C66.74 7.97243 66.1947 8.66722 66.1417 9.61931C66.0797 10.7287 66.7041 11.4096 67.5996 11.9349C68.7232 12.5943 69.9678 12.8849 71.2166 13.1724C73.3677 13.6676 75.5544 14.0617 77.5335 15.0999C79.0955 15.9193 80.3446 17.0512 80.8777 18.8044C81.3728 20.4332 81.2947 22.0367 80.6299 23.6082C79.7638 25.6554 78.122 26.8287 76.1077 27.5693C74.2754 28.2429 72.3615 28.3394 70.443 28.229C69.1319 28.1533 67.8448 27.8492 66.6515 27.2797C65.1038 26.5408 63.8536 25.4447 62.9746 23.9665C62.6704 23.4547 62.4411 22.8971 62.2042 22.3488C62.1683 22.2651 62.2436 22.054 62.3251 22.0117C63.1226 21.5967 63.9327 21.2054 64.7724 20.7908ZM85.3532 22.0912C86.2543 21.6603 87.1152 21.2482 88.0274 20.8121C88.1392 21.0847 88.2406 21.3437 88.3504 21.5985C89.1768 23.5145 90.6392 24.6718 92.6492 25.1784C94.6488 25.6822 96.6199 25.6999 98.5014 24.7492C99.7703 24.1083 100.81 23.2232 101.209 21.7798C101.497 20.7343 101.294 19.7906 100.599 18.9531C99.8278 18.0228 98.7798 17.5044 97.6669 17.1718C95.5419 16.5371 93.3921 15.9857 91.2482 15.4149C89.9688 15.0739 88.7984 14.5159 87.8671 13.5781C87.0661 12.7708 86.5588 11.8131 86.4504 10.619C86.2706 8.64611 86.9347 7.04264 88.3716 5.7475C89.4134 4.80826 90.6817 4.25236 92.0395 3.93049C93.3057 3.63049 94.599 3.51937 95.8993 3.59229C97.9181 3.70583 99.8338 4.17806 101.431 5.48257C102.484 6.34299 103.249 7.44333 103.737 8.74021C102.917 9.24333 102.094 9.74785 101.265 10.2565C101.021 9.76313 100.807 9.28292 100.554 8.82354C99.8331 7.51556 98.6651 6.79993 97.2537 6.45653C95.2349 5.96521 93.2499 6.04611 91.3733 7.00896C90.4172 7.49924 89.6942 8.22944 89.4315 9.32389C89.2451 10.1013 89.5587 10.902 90.1862 11.4395C91.4182 12.4951 92.9496 12.8156 94.4659 13.1722C96.6007 13.6739 98.7728 14.0586 100.745 15.0867C102.41 15.9551 103.704 17.1499 104.2 19.0399C104.594 20.5426 104.525 22.0176 103.944 23.4597C103.047 25.6871 101.28 26.919 99.0826 27.659C97.3537 28.2409 95.5662 28.3287 93.7729 28.2305C92.3618 28.1534 90.9817 27.836 89.7159 27.1843C87.819 26.2076 86.4149 24.7583 85.6295 22.7527C85.5508 22.5513 85.463 22.3534 85.3532 22.0912ZM58.5181 24.9933V27.8818H43.176V3.78493H57.8394V6.57104H46.2602V13.1627H56.8276V16.0686H46.2686V24.9933H58.5181ZM111.255 27.8997V3.7816H114.358V27.8997H111.255ZM155.978 9.06125C154.895 11.1828 153.83 13.2689 152.743 15.3977H159.208C158.132 13.2876 157.068 11.1994 155.978 9.06125ZM169 27.8335C167.983 27.8314 166.965 27.8199 165.948 27.8349C165.689 27.8387 165.572 27.7505 165.458 27.522C164.785 26.1776 164.093 24.8425 163.404 23.5064C162.558 21.8675 161.714 20.2279 160.85 18.5984C160.781 18.4682 160.563 18.3401 160.413 18.3394C157.445 18.3241 154.477 18.3321 151.509 18.3213C151.237 18.3203 151.123 18.4342 151.014 18.6529C150.271 20.1474 149.522 21.6387 148.766 23.1269C147.974 24.6869 147.172 26.2425 146.36 27.8279H141.497C140.758 27.8279 140.018 27.7911 139.282 27.8401C138.715 27.8779 138.289 27.6873 137.859 27.3453C136.21 26.0331 134.537 24.7519 132.88 23.4501C131.242 22.1644 129.616 20.8654 127.981 19.5772C127.067 18.8574 126.146 18.1474 125.227 17.4349C125.21 17.422 125.175 17.4335 125.104 17.4335V27.8029H121.956V3.77653H125.073V13.7053C125.618 13.2974 126.093 12.947 126.562 12.588C128.137 11.3824 129.713 10.1783 131.282 8.96542C133.188 7.4925 135.095 6.02167 136.983 4.52653C137.509 4.11021 138.027 3.8616 138.732 3.905C139.787 3.97028 140.85 3.92132 141.909 3.92306C142.039 3.92306 142.17 3.9366 142.433 3.95118C137.427 7.84181 132.519 11.6557 127.552 15.5158C132.691 19.5661 137.814 23.6033 142.963 27.6623C143.813 26.0012 144.656 24.3522 145.499 22.7036C146.738 20.2824 147.975 17.8602 149.215 15.4404C150.431 13.0685 151.649 10.6981 152.868 8.32861C153.869 6.38486 154.874 4.44354 155.878 2.50153C155.902 2.45465 155.938 2.41299 156.006 2.31264C156.696 3.6741 157.364 4.99736 158.037 6.3175C159.495 9.17896 160.956 12.0401 162.418 14.8998C163.096 16.2265 163.784 17.5481 164.463 18.8748C165.876 21.6369 167.285 24.4012 168.7 27.1623C168.778 27.3137 168.899 27.4435 169 27.5835V27.8335ZM64.1617 37.4119V40.0883C65.7209 40.0883 67.2519 40.1119 68.7814 40.0751C69.3041 40.0623 69.7368 39.796 69.9588 39.2574C70.1654 38.7557 70.0623 38.3203 69.7434 37.9262C69.3933 37.4932 68.855 37.4401 68.3675 37.4262C66.977 37.3859 65.5846 37.4119 64.1617 37.4119ZM64.123 40.8279V43.8911H63.2499V36.7553H63.6718C65.4115 36.7553 67.1512 36.7463 68.8909 36.7595C69.6515 36.7651 70.2696 37.0866 70.6504 37.756C71.0368 38.4359 71.0448 39.1536 70.6469 39.8258C70.3424 40.3397 69.8668 40.6703 69.2515 40.7408C68.8696 40.7845 68.4842 40.8213 68.1003 40.8241C66.7951 40.8342 65.4895 40.8279 64.123 40.8279ZM100.263 44C100.075 43.9451 99.8899 43.8694 99.6979 43.8389C98.722 43.6837 97.9164 43.1993 97.1481 42.5729C97.322 42.399 97.4718 42.2299 97.6453 42.0889C97.691 42.0517 97.8356 42.0701 97.8889 42.116C98.7763 42.8819 99.8185 43.1885 100.976 43.2719C102.074 43.351 103.132 43.266 104.14 42.8219C104.573 42.6313 104.879 42.3017 104.868 41.7764C104.857 41.291 104.531 41.009 104.149 40.8597C103.688 40.6792 103.187 40.5472 102.695 40.5083C101.743 40.4337 100.781 40.4823 99.8307 40.3969C99.1348 40.3344 98.431 40.1455 98.0182 39.501C97.4952 38.6847 97.8303 37.7403 98.8268 37.1802C99.5171 36.792 100.279 36.6385 101.064 36.5889C102.407 36.5038 103.697 36.6844 104.889 37.349C105.019 37.4212 105.139 37.5101 105.295 37.6111C105.097 37.7931 104.924 37.951 104.781 38.0816C104.083 37.8444 103.406 37.5563 102.7 37.3889C101.609 37.1309 100.525 37.2174 99.499 37.7111C98.9018 37.9983 98.5972 38.4187 98.6725 38.8149C98.753 39.2403 99.2794 39.6316 99.8902 39.6667C100.719 39.7142 101.552 39.6937 102.378 39.766C103.055 39.825 103.738 39.9215 104.391 40.1017C105.318 40.358 105.861 41.1094 105.768 41.9483C105.673 42.8087 105.077 43.2896 104.319 43.5687C103.818 43.7535 103.288 43.859 102.771 44H100.263ZM84.1391 40.2121C85.8621 40.1697 87.5634 40.1392 89.2634 40.0784C89.6672 40.0638 90.2278 39.4732 90.3132 39.0708C90.4271 38.5333 90.2271 38.0708 89.7832 37.7524C89.3007 37.4062 88.731 37.4482 88.201 37.427C86.9645 37.3777 85.7248 37.4107 84.4865 37.4124C84.3677 37.4128 84.2492 37.4288 84.1391 37.4371V40.2121ZM91.0724 43.8583C90.316 44.0767 89.8822 43.7857 89.508 43.177C89.0526 42.4353 88.4899 41.7586 87.961 41.0631C87.8997 40.9822 87.7596 40.919 87.6551 40.918C86.4993 40.9079 85.3429 40.9117 84.1391 40.9117V43.8836H83.2419V36.7756C83.3489 36.7687 83.4558 36.7562 83.5632 36.7562C85.4164 36.7551 87.27 36.7294 89.1226 36.7649C90.2808 36.7867 91.2937 37.6364 91.2153 38.8701C91.1386 40.0704 90.4174 40.6159 89.2136 40.827C89.1467 40.8388 89.0773 40.8353 88.8634 40.8468C89.6303 41.8923 90.3435 42.8645 91.0724 43.8583ZM76.9346 37.6666C76.3238 38.6815 75.7653 39.61 75.1904 40.5652H78.6551C78.0753 39.5888 77.5255 38.662 76.9346 37.6666ZM72.1267 43.9114C73.5618 41.5409 74.9507 39.2468 76.3395 36.9523C76.5367 36.6263 77.3478 36.6662 77.5628 37.0221C77.9987 37.7447 78.4224 38.4752 78.8568 39.1989C79.706 40.612 80.5599 42.0228 81.4087 43.4364C81.4847 43.5634 81.5383 43.7041 81.6362 43.9089C81.3139 43.9089 81.031 43.9239 80.7516 43.8989C80.6753 43.8919 80.5944 43.7735 80.5422 43.6898C80.0944 42.9735 79.6596 42.2492 79.2028 41.5388C79.137 41.4367 78.9739 41.3384 78.8548 41.337C77.5454 41.3228 76.2353 41.32 74.9259 41.3405C74.7907 41.3426 74.6134 41.4874 74.5315 41.6145C74.119 42.2558 73.6998 42.8975 73.3493 43.5728C73.196 43.8686 73.0253 43.9377 72.7385 43.9141C72.5615 43.8995 72.3824 43.9114 72.1267 43.9114ZM94.0144 43.8844V36.7819H94.79V43.8844H94.0144Z" fill="#231F20"/>
</svg>
