<svg width="164" height="82" viewBox="0 0 164 82" fill="none" xmlns="http://www.w3.org/2000/svg">
<g clip-path="url(#clip0_3006_11242)">
<path d="M27.4199 64.7802C27.487 66.288 27.2508 67.7939 26.7253 69.2088C26.1998 70.6237 25.3957 71.9187 24.3607 73.0172C23.3256 74.1156 22.0806 74.9952 20.6995 75.6038C19.3183 76.2124 17.829 76.5376 16.3199 76.5602H16.0899C12.9705 76.5445 9.98339 75.2983 7.77762 73.0925C5.57185 70.8868 4.32571 67.8996 4.30994 64.7802C4.36639 61.6736 5.6256 58.71 7.82266 56.5129C10.0197 54.3159 12.9833 53.0566 16.0899 53.0002C17.6169 52.9976 19.1285 53.3039 20.5339 53.9008C21.9394 54.4976 23.2096 55.3726 24.268 56.4731C25.3265 57.5736 26.1514 58.8769 26.6931 60.3045C27.2347 61.7321 27.482 63.2546 27.4199 64.7802ZM16.0899 48.2402C13.9398 48.2421 11.8118 48.6746 9.83154 49.5123C7.85129 50.3499 6.05888 51.5758 4.56009 53.1174C3.0613 54.6591 1.88651 56.4854 1.10501 58.4885C0.323518 60.4916 -0.0488421 62.6309 0.00992025 64.7802C0.141133 67.8781 1.17694 70.8696 2.98941 73.3854C4.80189 75.9011 7.31163 77.8308 10.2086 78.9361C13.1055 80.0414 16.2628 80.2738 19.2904 79.6047C22.318 78.9356 25.0832 77.3943 27.2446 75.1711C29.406 72.9479 30.8687 70.1403 31.4522 67.095C32.0357 64.0498 31.7143 60.9003 30.5278 58.0356C29.3412 55.171 27.3415 52.7167 24.7757 50.9759C22.2099 49.2351 19.1903 48.284 16.0899 48.2402Z" fill="#C40D2E"/>
<path d="M52.1101 69.7703L43.0501 48.0303L33.0801 80.4203H38.0601V80.6503L43.7301 61.3903L52.1101 81.5503L60.4901 61.3903L66.3801 80.6503H71.1401L61.1701 48.0303L52.1101 69.7703Z" fill="#C40D2E"/>
<path d="M140.67 69.5501L146.33 57.5501L152.22 69.5501H140.67ZM146.56 47.1201L130.02 80.4201H135.23L138.63 73.8501H154.94L158.11 80.4201H163.32L146.56 47.1201Z" fill="#C40D2E"/>
<path d="M130.49 63.6603H114.86V68.1903H125.73C125.06 70.6143 123.609 72.7497 121.602 74.2649C119.595 75.7801 117.144 76.5905 114.63 76.5703C113.083 76.5703 111.551 76.2656 110.122 75.6736C108.692 75.0816 107.394 74.2139 106.3 73.12C105.206 72.0261 104.338 70.7275 103.746 69.2983C103.154 67.8691 102.85 66.3373 102.85 64.7903C102.85 63.2433 103.154 61.7115 103.746 60.2823C104.338 58.8531 105.206 57.5545 106.3 56.4606C107.394 55.3667 108.692 54.499 110.122 53.907C111.551 53.315 113.083 53.0103 114.63 53.0103C116.492 53.0565 118.319 53.5317 119.969 54.3989C121.618 55.2661 123.045 56.5019 124.14 58.0103L127.76 55.2903C125.575 52.1939 122.359 49.9775 118.687 49.0391C115.016 48.1008 111.13 48.5019 107.728 50.1704C104.326 51.8389 101.63 54.6655 100.124 58.1428C98.6185 61.6201 98.4015 65.5203 99.5124 69.1431C100.623 72.7659 102.989 75.8741 106.186 77.9096C109.382 79.9451 113.199 80.7745 116.952 80.249C120.704 79.7236 124.147 77.8776 126.661 75.0425C129.175 72.2074 130.596 68.5689 130.67 64.7803C130.503 64.4322 130.44 64.0432 130.49 63.6603Z" fill="#C40D2E"/>
<path d="M64.1201 18.58C64.1201 10.2 70.01 1.82004 79.3 1.82004C88.81 1.82004 94.48 9.75002 94.48 18.58C94.48 27.19 89.9501 33.98 83.3801 38.97L83.61 39.65H98.61L101.78 33.31H100.19L98.1901 36.48H90.4901C93.3912 34.5652 95.7901 31.9816 97.485 28.9468C99.1799 25.9119 100.121 22.5144 100.23 19.04C100.23 7.04004 89.81 0.0400391 79.16 0.0400391C68.51 0.0400391 58.0901 7.04004 58.0901 19.04C58.1988 22.5144 59.1402 25.9119 60.8351 28.9468C62.53 31.9816 64.9289 34.5652 67.83 36.48H60.13L58.13 33.31H56.54L59.7101 39.65H74.7101L75.16 38.97C68.67 33.98 64.1201 26.96 64.1201 18.58Z" fill="#C40D2E"/>
<path d="M74.9902 80.4197H93.7902V75.8897H79.7502V67.0597H93.3402V62.5197H79.7502V53.4597H93.7902V48.9297H74.9902V80.4197Z" fill="#C40D2E"/>
</g>
<defs>
<clipPath id="clip0_3006_11242">
<rect width="163.34" height="81.55" fill="white"/>
</clipPath>
</defs>
</svg>
