<svg width="235" height="126" viewBox="0 0 235 126" fill="none" xmlns="http://www.w3.org/2000/svg">
<g clip-path="url(#clip0_3006_11286)">
<path d="M31.6999 87.3992H19.7999L17.3999 93.6992H13.8999L24.3999 67.1992H27.5999L37.8999 93.6992H34.1999L31.6999 87.3992ZM20.8999 84.4992H30.5999L25.6999 71.7992L20.8999 84.4992Z" fill="black"/>
<path d="M3.4 69.9992V79.5992H8C8 79.5992 8.8 79.5992 9.3 79.5992C10.7 79.5992 11.7 79.2992 12.5 78.4992C13.4 77.6992 13.8 76.2992 13.8 74.8992C13.8 73.4992 13.4 72.1992 12.5 71.1992C11.6 70.1992 9.9 70.0992 9.6 70.0992C9.3 70.0992 9.1 70.0992 9.1 70.0992H3.4V69.9992ZM0 67.1992H9.1C10.5 67.1992 12.9 67.4992 14.6 68.8992C16.9 70.6992 17.3 73.1992 17.3 74.7992C17.3 76.3992 16.9 78.5992 15.3 80.0992C13.2 82.0992 11.1 82.3992 8 82.3992H3.4V93.6992H0V67.1992Z" fill="black"/>
<path d="M121.3 67.1992H124.7V78.5992H136.6V67.1992H139.9V93.6992H136.6V81.4992H124.7V93.6992H121.3V67.1992Z" fill="black"/>
<path d="M148.4 67.1992H145V93.6992H148.4V67.1992Z" fill="black"/>
<path d="M153.3 67.1992H156.7V90.7992H168.2V93.6992H153.3V67.1992Z" fill="black"/>
<path d="M52.5 67.1992V70.0992H44.4V93.6992H41.1V70.0992H33V67.1992H52.5Z" fill="black"/>
<path d="M69.7001 67.1992L68.0001 70.0992H58.0001V78.3992H67.4001V81.3992H58.0001V90.7992H67.8001L69.5001 93.6992H54.6001V67.1992H69.7001Z" fill="black"/>
<path d="M75.6999 79.5992L87.0999 67.1992H91.2999L82.5999 76.6992L91.4999 93.6992H87.6999L80.2999 79.0992L75.6999 83.9992V93.6992H72.3999V67.1992H75.6999V79.5992Z" fill="black"/>
<path d="M123.3 123.398H129.7L130.8 125.398H121V107.898H132.3L137.4 122.398L142.6 107.898H144.9L138.3 125.398H136.2L130.6 109.898H123.3V115.298H129.4V117.298H123.3V123.398Z" fill="black"/>
<path d="M104.8 69.9992V79.5992H109.5C109.5 79.5992 110.3 79.5992 110.8 79.5992C112.2 79.5992 113.2 79.2992 114 78.4992C114.9 77.6992 115.3 76.2992 115.3 74.8992C115.3 73.4992 114.9 72.1992 114 71.1992C113.1 70.1992 111.4 70.0992 111.1 70.0992C110.8 70.0992 110.6 70.0992 110.6 70.0992H104.8V69.9992ZM101.5 67.1992H110.6C112 67.1992 114.4 67.4992 116.1 68.8992C118.4 70.6992 118.8 73.1992 118.8 74.7992C118.8 76.3992 118.4 78.5992 116.8 80.0992C114.7 82.0992 112.6 82.3992 109.5 82.3992H104.8V93.6992H101.4V67.1992H101.5Z" fill="black"/>
<path d="M173.8 67.1992H170.4V93.6992H173.8V67.1992Z" fill="black"/>
<path d="M182.1 69.9992V79.5992H186.8C186.8 79.5992 187.6 79.5992 188.1 79.5992C189.5 79.5992 190.5 79.2992 191.3 78.4992C192.2 77.6992 192.6 76.2992 192.6 74.8992C192.6 73.4992 192.2 72.1992 191.3 71.1992C190.4 70.1992 188.7 70.0992 188.4 70.0992C188.1 70.0992 187.9 70.0992 187.9 70.0992H182.1V69.9992ZM178.7 67.1992H187.8C189.2 67.1992 191.6 67.4992 193.3 68.8992C195.6 70.6992 196 73.1992 196 74.7992C196 76.3992 195.6 78.5992 194 80.0992C191.9 82.0992 189.8 82.3992 186.7 82.3992H182V93.6992H178.6L178.7 67.1992Z" fill="black"/>
<path d="M202.3 69.9992V79.5992H207C207 79.5992 207.8 79.5992 208.3 79.5992C209.7 79.5992 210.7 79.2992 211.5 78.4992C212.4 77.6992 212.8 76.2992 212.8 74.8992C212.8 73.4992 212.4 72.1992 211.5 71.1992C210.6 70.1992 208.9 70.0992 208.6 70.0992C208.3 70.0992 208.1 70.0992 208.1 70.0992H202.3V69.9992ZM198.9 67.1992H208C209.4 67.1992 211.8 67.4992 213.5 68.8992C215.8 70.6992 216.2 73.1992 216.2 74.7992C216.2 76.3992 215.8 78.5992 214.2 80.0992C212.1 82.0992 210 82.3992 206.9 82.3992H202.2V93.6992H198.8L198.9 67.1992Z" fill="black"/>
<path d="M234.2 67.1992L232.5 70.0992H222.5V78.3992H231.8V81.3992H222.5V90.7992H232.3L233.9 93.6992H219.1V67.1992H234.2Z" fill="black"/>
<path d="M91.1001 116.499V122.799C89.7001 124.199 87.9001 125.699 84.3001 125.699C80.3001 125.699 76.6001 122.299 76.6001 116.899C76.6001 111.799 80.0001 107.699 84.8001 107.699C88.6001 107.699 90.5001 110.099 91.2001 111.099L89.6001 112.599C89.6001 112.599 88.0001 109.599 84.8001 109.599C81.6001 109.599 79.1001 112.499 79.1001 116.999C79.1001 121.299 81.8001 123.899 84.7001 123.899C87.2001 123.899 88.9001 122.199 89.0001 122.099V118.499H83.7001V116.599H91.1001V116.499Z" fill="black"/>
<path d="M104 107.898L102.9 109.898H96.3001V115.298H102.5V117.298H96.3001V123.398H102.7L103.8 125.398H94.1001V107.898H104Z" fill="black"/>
<path d="M115.9 107.898H118V125.398H115.8L107.9 111.098V125.398H105.8V107.898H108.6L115.9 121.098V107.898Z" fill="black"/>
<path d="M156.2 107.898L155.2 109.898H148.6V115.298H154.7V117.298H148.6V123.398H155L156.1 125.398H146.4V107.898H156.2Z" fill="black"/>
<path d="M127.8 24.8996C129.6 24.8996 131.4 23.7996 131.4 22.3996C131.4 21.8996 131 20.8996 129.5 20.8996C127.6 20.8996 126 22.8996 124.3 22.8996C122.8 22.8996 122.6 21.6996 122.6 21.6996C123.5 21.6996 123.8 21.6996 124.9 21.0996C125.9 20.5996 127.3 19.0996 128.3 18.0996C129.2 17.0996 130.7 15.7996 132.5 15.7996C134.3 15.7996 136.1 16.8996 136.1 18.9996C136.1 21.7996 133.9 22.5996 133.9 23.5996C133.9 23.8996 134 24.2996 134.6 24.2996C135.5 24.2996 137.2 22.9996 138.9 22.9996C141.2 22.9996 143.2 25.5996 143.2 25.5996C143.2 25.5996 141.2 28.1996 138.9 28.1996C137.2 28.1996 135.5 26.8996 134.6 26.8996C134 26.8996 133.9 27.2996 133.9 27.5996C133.9 28.5996 136.1 29.4996 136.1 32.1996C136.1 34.2996 134.3 35.3996 132.5 35.3996C130.7 35.3996 129.2 34.0996 128.3 33.0996C127.4 32.0996 126 30.5996 124.9 30.0996C123.8 29.5996 123.5 29.4996 122.6 29.4996C122.6 29.4996 122.8 28.2996 124.3 28.2996C126 28.2996 127.6 30.2996 129.5 30.2996C131 30.2996 131.4 29.2996 131.4 28.7996C131.4 27.2996 129.6 26.2996 127.8 26.2996H117.8V36.2996C117.8 38.0996 118.9 39.8996 120.3 39.8996C120.8 39.8996 121.8 39.4996 121.8 37.9996C121.8 36.0996 119.8 34.4996 119.8 32.7996C119.8 31.2996 121 31.0996 121 31.0996C121 31.9996 121 32.2996 121.6 33.3996C122.1 34.3996 123.6 35.7996 124.6 36.7996C125.6 37.6996 126.9 39.1996 126.9 40.9996C126.9 42.7996 125.8 44.5996 123.7 44.5996C120.9 44.5996 120.1 42.3996 119.1 42.3996C118.8 42.3996 118.4 42.4996 118.4 43.0996C118.4 43.9996 119.7 45.6996 119.7 47.3996C119.7 49.6996 117.1 51.6996 117.1 51.6996C117.1 51.6996 114.5 49.6996 114.5 47.3996C114.5 45.6996 115.8 43.9996 115.8 43.0996C115.8 42.4996 115.4 42.3996 115.1 42.3996C114.1 42.3996 113.2 44.5996 110.5 44.5996C108.4 44.5996 107.3 42.7996 107.3 40.9996C107.3 39.1996 108.6 37.6996 109.6 36.7996C110.6 35.8996 112.1 34.4996 112.6 33.3996C113.1 32.2996 113.2 31.9996 113.2 31.0996C113.2 31.0996 114.4 31.2996 114.4 32.7996C114.4 34.4996 112.4 36.0996 112.4 37.9996C112.4 39.4996 113.4 39.8996 113.9 39.8996C115.4 39.8996 116.4 38.0996 116.4 36.2996V26.2996H106.4C104.6 26.2996 102.8 27.3996 102.8 28.7996C102.8 29.2996 103.2 30.2996 104.7 30.2996C106.6 30.2996 108.2 28.2996 109.9 28.2996C111.4 28.2996 111.6 29.4996 111.6 29.4996C110.7 29.4996 110.4 29.4996 109.3 30.0996C108.3 30.5996 106.9 32.0996 105.9 33.0996C105 34.0996 103.5 35.3996 101.7 35.3996C99.9 35.3996 98.1 34.2996 98.1 32.1996C98.1 29.3996 100.3 28.5996 100.3 27.5996C100.3 27.2996 100.2 26.8996 99.6 26.8996C98.7 26.8996 97 28.1996 95.3 28.1996C93 28.1996 91 25.5996 91 25.5996C91 25.5996 93 22.9996 95.3 22.9996C97 22.9996 98.7 24.2996 99.6 24.2996C100.2 24.2996 100.3 23.8996 100.3 23.5996C100.3 22.5996 98.1 21.6996 98.1 18.9996C98.1 16.8996 99.9 15.7996 101.7 15.7996C103.5 15.7996 105 17.0996 105.9 18.0996C106.8 19.0996 108.2 20.5996 109.3 21.0996C110.4 21.5996 110.7 21.6996 111.6 21.6996C111.6 21.6996 111.4 22.8996 109.9 22.8996C108.2 22.8996 106.6 20.8996 104.7 20.8996C103.2 20.8996 102.8 21.8996 102.8 22.3996C102.8 23.8996 104.6 24.8996 106.4 24.8996H116.4V14.9996C116.4 13.1996 115.3 11.3996 113.9 11.3996C113.4 11.3996 112.4 11.7996 112.4 13.2996C112.4 15.1996 114.4 16.7996 114.4 18.4996C114.4 19.9996 113.2 20.1996 113.2 20.1996C113.2 19.2996 113.2 18.9996 112.6 17.8996C112.1 16.8996 110.6 15.4996 109.6 14.4996C108.6 13.5996 107.3 12.0996 107.3 10.2996C107.3 8.49961 108.4 6.69961 110.5 6.69961C113.3 6.69961 114.1 8.89961 115.1 8.89961C115.4 8.89961 115.8 8.79961 115.8 8.19961C115.8 7.29961 114.5 5.59961 114.5 3.89961C114.5 1.59961 117.1 -0.400391 117.1 -0.400391C117.1 -0.400391 119.7 1.59961 119.7 3.89961C119.7 5.59961 118.4 7.29961 118.4 8.19961C118.4 8.79961 118.8 8.89961 119.1 8.89961C120.1 8.89961 121 6.69961 123.7 6.69961C125.8 6.69961 126.9 8.49961 126.9 10.2996C126.9 12.0996 125.6 13.5996 124.6 14.4996C123.6 15.3996 122.1 16.7996 121.6 17.8996C121.1 18.9996 121 19.2996 121 20.1996C121 20.1996 119.8 19.9996 119.8 18.4996C119.8 16.7996 121.8 15.1996 121.8 13.2996C121.8 11.7996 120.8 11.3996 120.3 11.3996C118.8 11.3996 117.8 13.1996 117.8 14.9996V24.9996H127.8V24.8996Z" fill="black"/>
</g>
<defs>
<clipPath id="clip0_3006_11286">
<rect width="234.2" height="125.4" fill="white"/>
</clipPath>
</defs>
</svg>
