<svg width="103" height="59" viewBox="0 0 103 59" fill="none" xmlns="http://www.w3.org/2000/svg">
<path d="M39.3999 10.7002C39.5999 10.7002 39.6999 10.7002 39.7999 10.6002L44.9999 28.0002C45.5999 29.9002 48.3999 31.4002 51.7999 31.4002C55.1999 31.4002 57.9999 29.9002 58.5999 28.0002L63.6999 10.6002C63.7999 10.6002 63.9999 10.6002 64.0999 10.6002C65.0999 10.6002 65.8999 9.8002 65.8999 8.8002C65.8999 7.8002 65.0999 7.0002 64.0999 7.0002C63.0999 7.0002 62.2999 7.8002 62.2999 8.8002C62.2999 9.5002 62.6999 10.1002 63.2999 10.4002L57.3999 23.1002L58.3999 6.0002C59.3999 6.0002 60.1999 5.2002 60.1999 4.2002C60.1999 3.2002 59.3999 2.4002 58.3999 2.4002C57.3999 2.4002 56.5999 3.2002 56.5999 4.2002C56.5999 5.0002 57.1999 5.7002 57.8999 5.9002L53.9999 22.6002L51.9999 4.3002C52.8999 4.2002 53.4999 3.4002 53.4999 2.5002C53.4999 1.5002 52.6999 0.700195 51.6999 0.700195C50.6999 0.700195 49.8999 1.5002 49.8999 2.5002C49.8999 3.4002 50.5999 4.2002 51.3999 4.3002L49.4999 22.7002L45.6999 6.0002C46.4999 5.8002 46.9999 5.1002 46.9999 4.3002C46.9999 3.3002 46.1999 2.5002 45.1999 2.5002C44.1999 2.5002 43.3999 3.3002 43.3999 4.3002C43.3999 5.3002 44.1999 6.1002 45.1999 6.1002L46.1999 23.2002L40.2999 10.5002C40.8999 10.2002 41.2999 9.6002 41.2999 8.9002C41.2999 7.9002 40.4999 7.1002 39.4999 7.1002C38.4999 7.1002 37.6999 7.9002 37.6999 8.9002C37.5999 9.9002 38.3999 10.7002 39.3999 10.7002ZM51.7999 26.5002C54.8999 26.5002 57.3999 27.3002 57.3999 28.3002C57.3999 29.3002 54.8999 30.1002 51.7999 30.1002C48.6999 30.1002 46.1999 29.3002 46.1999 28.3002C46.0999 27.3002 48.6999 26.5002 51.7999 26.5002Z" fill="#A37E2C"/>
<path d="M19.6004 55.1998L18.5004 51.8998C18.0004 50.3998 17.6004 49.7998 16.8004 48.9998C16.3004 48.4998 15.5004 48.2998 14.9004 48.0998C17.0004 47.7998 18.6004 45.8998 18.6004 43.6998C18.6004 41.2998 16.6004 39.2998 14.2004 39.2998H14.1004H7.40039H3.40039H1.00039V40.5998H3.40039V55.1998H0.900391V56.4998H7.30039H9.80039V55.1998H7.40039V48.1998H9.30039C9.40039 48.1998 9.40039 48.1998 9.50039 48.1998H9.90039C10.5004 48.1998 11.0004 48.2998 11.5004 48.3998C11.9004 48.4998 12.4004 48.6998 12.7004 48.8998C13.1004 49.1998 13.6004 49.5998 14.0004 50.1998C14.1004 50.3998 14.2004 50.5998 14.3004 50.6998C15.0004 52.0998 15.5004 53.9998 16.0004 56.3998H19.0004H21.7004V55.0998L19.6004 55.1998ZM11.6004 46.8998H7.40039V40.5998H11.6004C13.4004 40.6998 14.8004 41.8998 14.8004 43.6998C14.8004 45.4998 13.4004 46.7998 11.6004 46.8998Z" fill="#006039"/>
<path d="M31.9006 38.7002C26.7006 38.7002 22.6006 42.9002 22.6006 47.9002C22.6006 52.9002 26.8006 57.1002 31.9006 57.1002C37.1006 57.1002 41.2006 52.9002 41.2006 47.9002C41.2006 42.9002 37.1006 38.7002 31.9006 38.7002ZM35.8006 53.2002C35.5006 53.6002 35.1006 54.0002 34.7006 54.3002C34.0006 54.8002 33.2006 55.2002 32.4006 55.2002C32.2006 55.2002 32.1006 55.2002 31.9006 55.2002C31.7006 55.2002 31.6006 55.2002 31.4006 55.2002C30.6006 55.2002 29.8006 54.8002 29.1006 54.3002C28.7006 54.0002 28.3006 53.6002 28.0006 53.2002C27.0006 51.9002 26.4006 50.0002 26.4006 47.9002C26.4006 45.9002 26.9006 44.2002 27.8006 42.8002C28.3006 41.9002 29.0006 41.2002 30.0006 40.8002C30.0006 40.8002 30.1006 40.8002 30.1006 40.7002C30.2006 40.6002 30.3006 40.6002 30.5006 40.6002C30.9006 40.5002 31.4006 40.4002 31.8006 40.4002C32.3006 40.4002 32.7006 40.5002 33.1006 40.6002C33.2006 40.6002 33.4006 40.7002 33.5006 40.7002C33.5006 40.7002 33.6006 40.7002 33.6006 40.8002C34.5006 41.2002 35.3006 41.9002 35.8006 42.8002C36.7006 44.1002 37.2006 45.9002 37.2006 47.9002C37.4006 50.0002 36.8006 51.9002 35.8006 53.2002Z" fill="#006039"/>
<path d="M59.7 49.7998H58.4V52.3998C58.4 53.9998 57.1 55.1998 55.5 55.1998H51.5H50V40.5998H52.5V39.2998H50H49.7H43.5V40.5998H46V55.1998H43.5V56.4998H58.4H59.5H59.6H59.7V52.2998V49.7998Z" fill="#006039"/>
<path d="M79.5 39.4004H79.4H75.4H62.5V40.7004H65V55.3004H62.5V56.6004H75.4H78.3H79.4H79.5H79.6V52.4004V50.5004H78.3V52.5004C78.3 54.1004 77 55.3004 75.4 55.3004H70.8H69H68.9V48.3004V48.0004H70.2H71C72.2 48.0004 73.1 49.0004 73.1 50.1004V50.8004V51.1004H74.3V51.0004V48.0004V46.9004V44.0004V43.9004H73.1V44.7004C73.1 45.9004 72.2 46.7004 71 46.7004H70.2H69.4H68.9V40.5004H69H72.7C72.7 40.5004 72.7 40.5004 72.8 40.5004H75.4C77 40.5004 78.2 41.8004 78.3 43.3004V45.1004H79.6V43.4004L79.5 39.4004Z" fill="#006039"/>
<path d="M101.801 55.2998C100.601 55.2998 100.301 54.8998 99.3008 53.7998L93.6008 46.6998L97.4008 42.1998C98.4008 40.9998 98.7008 40.5998 100.001 40.5998H100.801H101.001V39.2998H100.801H97.0008H96.8008H94.1008H94.0008V40.5998H94.2008H95.6008C95.9008 40.5998 96.2008 40.8998 96.2008 41.1998C96.2008 41.2998 96.2008 41.3998 96.1008 41.4998L92.8008 45.4998L90.0008 42.2998L89.5008 41.5998C89.4008 41.4998 89.4008 41.3998 89.4008 41.1998C89.4008 40.8998 89.7008 40.5998 90.0008 40.5998H91.5008V39.2998H88.8008H84.9008H82.8008V40.5998H83.2008C84.3008 40.6998 84.6008 40.9998 85.5008 41.9998L90.5008 48.2998L86.0008 53.6998C85.0008 54.8998 84.7008 55.2998 83.4008 55.2998H82.6008H82.3008V56.5998H82.6008H86.9008H87.2008H89.5008H89.8008V55.2998H89.5008H87.9008C87.6008 55.2998 87.3008 54.9998 87.3008 54.6998C87.3008 54.5998 87.4008 54.3998 87.4008 54.2998L91.4008 49.4998L94.7008 53.6998L95.2008 54.2998C95.3008 54.3998 95.3008 54.4998 95.3008 54.6998C95.3008 54.9998 95.0008 55.2998 94.7008 55.2998H93.1008V56.5998H102.401V55.2998H101.801Z" fill="#006039"/>
</svg>
