<svg width="150" height="150" viewBox="0 0 150 150" fill="none" xmlns="http://www.w3.org/2000/svg">
<circle cx="75" cy="75" r="75" fill="white"/>
<path d="M33.3939 108.434H50.6937C50.6937 105.747 51.2383 103.252 52.3276 100.949C53.4169 98.6465 54.7943 96.6634 56.4603 95.0002H57.4214C57.2932 95.8317 57.1971 96.6953 57.1331 97.5909C57.069 98.3586 57.0048 99.1901 56.9408 100.086C56.9408 100.981 56.9408 101.845 56.9408 102.677C56.9408 103.892 56.9408 104.979 56.9408 105.939C57.0048 106.835 57.069 107.634 57.1331 108.338C57.1971 109.106 57.2932 109.777 57.4214 110.353H19.458V109.393L25.2246 107.954V45.5833L19.458 44.144V43.1844H39.1605V44.144L33.3939 45.5833V108.434ZM56.6591 44.144V43.1844H76.8422V44.144L71.0756 45.5833L85.0116 95.0002L98.9475 41.7451H100.389L116.151 95.0002L128.742 46.5429L122.494 44.144V43.1844H136.911V44.144L130.664 46.5429L113.844 111.792H112.403L96.5447 58.0575L82.6088 111.792H81.1671L62.4257 45.5833L56.6591 44.144Z" fill="#222222"/>
</svg>
