<svg width="1280" height="504" viewBox="0 0 1280 504" fill="none" xmlns="http://www.w3.org/2000/svg">
<rect width="1280" height="504" fill="#F7F7F7"/>
<path d="M716.856 193.473H712.499V189.113C712.494 183.781 710.37 178.668 706.594 174.898C702.817 171.127 697.697 169.006 692.356 169H563.144C557.803 169.006 552.683 171.128 548.906 174.898C545.13 178.669 543.006 183.781 543 189.113V291.427C543.006 296.759 545.131 301.871 548.907 305.641C552.683 309.411 557.803 311.532 563.144 311.539H567.501V315.897C567.508 321.228 569.632 326.338 573.409 330.107C577.185 333.876 582.305 335.995 587.644 336H716.856C722.196 335.995 727.315 333.875 731.091 330.106C734.868 326.338 736.993 321.228 737 315.897V213.573C736.992 208.242 734.867 203.133 731.09 199.365C727.314 195.597 722.195 193.478 716.856 193.473ZM567.501 213.573V302.456H563.144C560.214 302.453 557.406 301.291 555.334 299.223C553.262 297.156 552.097 294.352 552.094 291.427V189.113C552.097 186.189 553.262 183.386 555.332 181.318C557.403 179.25 560.211 178.087 563.14 178.083H692.352C695.281 178.087 698.089 179.25 700.16 181.318C702.231 183.386 703.396 186.189 703.4 189.113V193.473H587.644C582.305 193.478 577.186 195.596 573.41 199.364C569.633 203.132 567.508 208.242 567.501 213.573ZM727.906 286.347L669.114 236.47C668.37 235.838 667.508 235.36 666.577 235.062C665.646 234.765 664.666 234.655 663.693 234.738C662.719 234.822 661.772 235.097 660.906 235.549C660.039 236 659.271 236.618 658.646 237.368L624.921 277.786L610.476 265.534C609.733 264.897 608.872 264.415 607.941 264.115C607.01 263.815 606.029 263.702 605.054 263.785C604.079 263.867 603.131 264.142 602.264 264.594C601.397 265.046 600.628 265.666 600.004 266.417L576.596 294.466V213.573C576.602 210.65 577.768 207.849 579.839 205.783C581.91 203.718 584.717 202.557 587.644 202.555H716.856C719.784 202.556 722.592 203.716 724.664 205.782C726.735 207.848 727.901 210.649 727.906 213.573V286.347ZM639.192 230.956C639.193 234.659 638.094 238.28 636.035 241.359C633.975 244.439 631.047 246.84 627.621 248.258C624.194 249.676 620.424 250.048 616.786 249.327C613.148 248.606 609.806 246.823 607.182 244.206C604.558 241.588 602.771 238.253 602.047 234.621C601.322 230.989 601.692 227.224 603.11 223.803C604.528 220.381 606.931 217.456 610.014 215.398C613.098 213.339 616.723 212.24 620.432 212.239C625.404 212.244 630.17 214.218 633.687 217.726C637.204 221.235 639.183 225.993 639.192 230.956Z" fill="#CDCCD1"/>
</svg>
