<svg width="430" height="42" viewBox="0 0 430 42" fill="none" xmlns="http://www.w3.org/2000/svg">
<path d="M8.64002 39.88H18.72C18.72 38.312 19.0373 36.856 19.672 35.512C20.3067 34.168 21.1093 33.0107 22.08 32.04H22.64C22.5653 32.5253 22.5093 33.0293 22.472 33.552C22.4347 34 22.3973 34.4853 22.36 35.008C22.36 35.5307 22.36 36.0347 22.36 36.52C22.36 37.2293 22.36 37.864 22.36 38.424C22.3973 38.9467 22.4347 39.4133 22.472 39.824C22.5093 40.272 22.5653 40.664 22.64 41H0.52002V40.44L3.88002 39.6V3.19996L0.52002 2.35996V1.79996H12V2.35996L8.64002 3.19996V39.88ZM57.0625 29.8C57.0625 34.0187 56.1852 37.08 54.4305 38.984C52.7132 40.888 50.2305 41.84 46.9825 41.84C43.1745 41.84 40.2065 40.7947 38.0785 38.704C35.9878 36.576 34.9425 33.608 34.9425 29.8V3.19996L31.5825 2.35996V1.79996H43.0625V2.35996L39.7025 3.19996V29.8C39.7025 33.5707 40.4492 36.3333 41.9425 38.088C43.4358 39.8427 45.3025 40.72 47.5425 40.72C48.8118 40.72 49.9505 40.5147 50.9585 40.104C52.0038 39.656 52.8812 38.984 53.5905 38.088C54.3372 37.192 54.9158 36.072 55.3265 34.728C55.7372 33.3467 55.9425 31.704 55.9425 29.8V3.75996L52.3025 2.35996V1.79996H60.7025V2.35996L57.0625 3.75996V29.8ZM81.496 22.744L72.48 3.19996L69.12 2.35996V1.79996H81.16V2.35996L77.8 3.19996L84.24 17.2L90.96 3.75996L87.32 2.35996V1.79996H95.72V2.35996L92.08 3.75996L84.8 18.376L94.6 39.6L97.96 40.44V41H85.92V40.44L89.28 39.6L82 23.864L74.44 39.04L78.08 40.44V41H69.68V40.44L73.32 39.04L81.496 22.744ZM131.313 29.8C131.313 34.0187 130.435 37.08 128.681 38.984C126.963 40.888 124.481 41.84 121.233 41.84C117.425 41.84 114.457 40.7947 112.329 38.704C110.238 36.576 109.193 33.608 109.193 29.8V3.19996L105.833 2.35996V1.79996H117.313V2.35996L113.953 3.19996V29.8C113.953 33.5707 114.699 36.3333 116.193 38.088C117.686 39.8427 119.553 40.72 121.793 40.72C123.062 40.72 124.201 40.5147 125.209 40.104C126.254 39.656 127.131 38.984 127.841 38.088C128.587 37.192 129.166 36.072 129.577 34.728C129.987 33.3467 130.193 31.704 130.193 29.8V3.75996L126.553 2.35996V1.79996H134.953V2.35996L131.313 3.75996V29.8ZM156.81 1.79996C159.2 1.79996 161.272 2.06129 163.026 2.58396C164.781 3.10662 166.237 3.81596 167.394 4.71196C168.552 5.60796 169.41 6.65329 169.97 7.84796C170.53 9.00529 170.81 10.256 170.81 11.6C170.81 12.6827 170.642 13.6533 170.306 14.512C170.008 15.3333 169.597 16.08 169.074 16.752C168.589 17.3867 168.01 17.928 167.338 18.376C166.666 18.824 165.994 19.1973 165.322 19.496C163.717 20.2053 161.906 20.6533 159.89 20.84C161.533 21.0267 163.026 21.4187 164.37 22.016C165.528 22.5387 166.61 23.304 167.618 24.312C168.626 25.32 169.224 26.6827 169.41 28.4L170.53 38.2C170.605 38.9093 170.773 39.4133 171.034 39.712C171.296 40.0107 171.594 40.16 171.93 40.16C172.117 40.16 172.304 40.104 172.49 39.992C172.714 39.8427 172.92 39.6747 173.106 39.488C173.293 39.3013 173.461 39.0587 173.61 38.76L174.17 39.32C173.946 39.8053 173.629 40.2347 173.218 40.608C172.882 40.9067 172.434 41.1867 171.874 41.448C171.352 41.7093 170.717 41.84 169.97 41.84C168.701 41.84 167.656 41.4853 166.834 40.776C166.05 40.0293 165.602 39.1707 165.49 38.2L164.37 28.4C164.221 27.1307 163.978 26.0667 163.642 25.208C163.306 24.312 162.84 23.584 162.242 23.024C161.682 22.464 160.954 22.0533 160.058 21.792C159.162 21.5307 158.08 21.4 156.81 21.4H154.57V39.6L157.93 40.44V41H146.45V40.44L149.81 39.6V3.19996L146.45 2.35996V1.79996H156.81ZM165.49 11.6C165.49 8.79996 164.744 6.65329 163.25 5.15996C161.757 3.66663 159.61 2.91996 156.81 2.91996H154.57V20.28H156.81C159.61 20.28 161.757 19.5333 163.25 18.04C164.744 16.5467 165.49 14.4 165.49 11.6ZM197.384 25.32V39.6L200.744 40.44V41H189.264V40.44L192.624 39.6V25.6L183.944 3.19996L180.584 2.35996V1.79996H192.344V2.35996L188.984 3.19996L196.936 23.64L204.664 3.75996L201.024 2.35996V1.79996H209.424V2.35996L205.784 3.75996L197.384 25.32ZM236.89 2.35996V1.79996H248.65V2.35996L245.29 3.19996L253.41 32.04L261.53 0.959961H262.37L271.554 32.04L278.89 3.75996L275.25 2.35996V1.79996H283.65V2.35996L280.01 3.75996L270.21 41.84H269.37L260.13 10.48L252.01 41.84H251.17L240.25 3.19996L236.89 2.35996ZM317.218 21.4C317.218 24.8347 316.826 27.84 316.042 30.416C315.295 32.9547 314.287 35.0827 313.018 36.8C311.786 38.48 310.386 39.7493 308.818 40.608C307.25 41.4293 305.663 41.84 304.058 41.84C302.452 41.84 300.866 41.4293 299.298 40.608C297.73 39.7493 296.311 38.48 295.042 36.8C293.81 35.0827 292.802 32.9547 292.018 30.416C291.271 27.84 290.898 24.8347 290.898 21.4C290.898 17.9653 291.271 14.9787 292.018 12.44C292.802 9.86396 293.81 7.73596 295.042 6.05596C296.311 4.33863 297.73 3.06929 299.298 2.24796C300.866 1.38929 302.452 0.959961 304.058 0.959961C305.663 0.959961 307.25 1.38929 308.818 2.24796C310.386 3.06929 311.786 4.33863 313.018 6.05596C314.287 7.73596 315.295 9.86396 316.042 12.44C316.826 14.9787 317.218 17.9653 317.218 21.4ZM311.898 21.4C311.898 17.5547 311.655 14.3813 311.17 11.88C310.722 9.34129 310.106 7.32529 309.322 5.83196C308.575 4.33862 307.735 3.29329 306.802 2.69596C305.868 2.09862 304.954 1.79996 304.058 1.79996C303.162 1.79996 302.247 2.09862 301.314 2.69596C300.38 3.29329 299.522 4.33862 298.738 5.83196C297.991 7.32529 297.375 9.34129 296.89 11.88C296.442 14.3813 296.218 17.5547 296.218 21.4C296.218 25.2453 296.442 28.4373 296.89 30.976C297.375 33.4773 297.991 35.4747 298.738 36.968C299.522 38.4613 300.38 39.5067 301.314 40.104C302.247 40.7013 303.162 41 304.058 41C304.954 41 305.868 40.7013 306.802 40.104C307.735 39.5067 308.575 38.4613 309.322 36.968C310.106 35.4747 310.722 33.4773 311.17 30.976C311.655 28.4373 311.898 25.2453 311.898 21.4ZM340.167 1.79996C342.556 1.79996 344.628 2.06129 346.383 2.58396C348.137 3.10662 349.593 3.81596 350.751 4.71196C351.908 5.60796 352.767 6.65329 353.327 7.84796C353.887 9.00529 354.167 10.256 354.167 11.6C354.167 12.6827 353.999 13.6533 353.663 14.512C353.364 15.3333 352.953 16.08 352.431 16.752C351.945 17.3867 351.367 17.928 350.695 18.376C350.023 18.824 349.351 19.1973 348.679 19.496C347.073 20.2053 345.263 20.6533 343.247 20.84C344.889 21.0267 346.383 21.4187 347.727 22.016C348.884 22.5387 349.967 23.304 350.975 24.312C351.983 25.32 352.58 26.6827 352.767 28.4L353.887 38.2C353.961 38.9093 354.129 39.4133 354.391 39.712C354.652 40.0107 354.951 40.16 355.287 40.16C355.473 40.16 355.66 40.104 355.847 39.992C356.071 39.8427 356.276 39.6747 356.463 39.488C356.649 39.3013 356.817 39.0587 356.967 38.76L357.527 39.32C357.303 39.8053 356.985 40.2347 356.575 40.608C356.239 40.9067 355.791 41.1867 355.231 41.448C354.708 41.7093 354.073 41.84 353.327 41.84C352.057 41.84 351.012 41.4853 350.191 40.776C349.407 40.0293 348.959 39.1707 348.847 38.2L347.727 28.4C347.577 27.1307 347.335 26.0667 346.999 25.208C346.663 24.312 346.196 23.584 345.599 23.024C345.039 22.464 344.311 22.0533 343.415 21.792C342.519 21.5307 341.436 21.4 340.167 21.4H337.927V39.6L341.287 40.44V41H329.807V40.44L333.167 39.6V3.19996L329.807 2.35996V1.79996H340.167ZM348.847 11.6C348.847 8.79996 348.1 6.65329 346.607 5.15996C345.113 3.66663 342.967 2.91996 340.167 2.91996H337.927V20.28H340.167C342.967 20.28 345.113 19.5333 346.607 18.04C348.1 16.5467 348.847 14.4 348.847 11.6ZM376.556 39.88H386.636C386.636 38.312 386.953 36.856 387.588 35.512C388.222 34.168 389.025 33.0107 389.996 32.04H390.556C390.481 32.5253 390.425 33.0293 390.388 33.552C390.35 34 390.313 34.4853 390.276 35.008C390.276 35.5307 390.276 36.0347 390.276 36.52C390.276 37.2293 390.276 37.864 390.276 38.424C390.313 38.9467 390.35 39.4133 390.388 39.824C390.425 40.272 390.481 40.664 390.556 41H368.436V40.44L371.796 39.6V3.19996L368.436 2.35996V1.79996H379.916V2.35996L376.556 3.19996V39.88ZM412.38 1.79996C414.844 1.79996 417.103 2.24796 419.156 3.14396C421.247 4.03996 423.058 5.32796 424.588 7.00796C426.119 8.68796 427.314 10.7413 428.172 13.168C429.031 15.5947 429.46 18.3387 429.46 21.4C429.46 24.4987 429.031 27.2613 428.172 29.688C427.314 32.1147 426.119 34.168 424.588 35.848C423.058 37.528 421.247 38.816 419.156 39.712C417.103 40.5707 414.844 41 412.38 41H402.58V40.44L405.94 39.6V3.19996L402.58 2.35996V1.79996H412.38ZM410.7 2.91996V39.88H412.38C413.986 39.88 415.498 39.544 416.916 38.872C418.372 38.1627 419.623 37.0613 420.668 35.568C421.751 34.0747 422.591 32.1707 423.188 29.856C423.823 27.504 424.14 24.6853 424.14 21.4C424.14 18.1147 423.823 15.3147 423.188 13C422.591 10.648 421.751 8.72529 420.668 7.23196C419.623 5.73863 418.372 4.65596 416.916 3.98396C415.498 3.27463 413.986 2.91996 412.38 2.91996H410.7Z" fill="#222222"/>
</svg>
