<svg width="9" height="16" viewBox="0 0 9 16" fill="none" xmlns="http://www.w3.org/2000/svg">
<path d="M8.9012 8.12258C8.9012 7.9133 8.81756 7.72078 8.65849 7.57011L2.02902 1.07457C1.87835 0.932269 1.69419 0.856934 1.47657 0.856934C1.04967 0.856934 0.714844 1.18338 0.714844 1.61866C0.714844 1.82792 0.798549 2.02044 0.932478 2.16273L7.02623 8.12258L0.932478 14.0824C0.798549 14.2246 0.714844 14.4089 0.714844 14.6264C0.714844 15.0617 1.04967 15.3882 1.47657 15.3882C1.69419 15.3882 1.87835 15.3129 2.02902 15.1621L8.65849 8.67501C8.81756 8.51601 8.9012 8.33179 8.9012 8.12258Z" fill="#222222"/>
</svg>
