<svg width="24" height="30" viewBox="0 0 24 30" fill="none" xmlns="http://www.w3.org/2000/svg">
<path d="M11.8493 29.3189C12.6328 29.3189 13.1903 28.7764 13.1903 27.9931V8.14984L13.0396 3.65988L12.1808 3.96121L17.5899 9.88253L21.0251 13.2575C21.2662 13.4986 21.6128 13.6191 21.9743 13.6191C22.7278 13.6191 23.2701 13.0466 23.2701 12.3083C23.2701 11.9467 23.1496 11.6303 22.8633 11.329L12.8588 1.30943C12.5726 1.00809 12.226 0.857422 11.8493 0.857422C11.4727 0.857422 11.1261 1.00809 10.8399 1.30943L0.850464 11.329C0.564192 11.6303 0.428589 11.9467 0.428589 12.3083C0.428589 13.0466 0.971 13.6191 1.72434 13.6191C2.08595 13.6191 2.44756 13.4986 2.67356 13.2575L6.10884 9.88253L11.5028 3.96121L10.6591 3.65988L10.5084 8.14984V27.9931C10.5084 28.7764 11.0659 29.3189 11.8493 29.3189Z" fill="#222222"/>
</svg>
