<svg width="27" height="16" viewBox="0 0 27 16" fill="none" xmlns="http://www.w3.org/2000/svg">
<path d="M13.6601 15.5958C14.0368 15.5958 14.3834 15.4452 14.6546 15.1589L26.3465 3.22586C26.6027 2.95466 26.7383 2.62318 26.7383 2.23145C26.7383 1.46303 26.1507 0.860352 25.3672 0.860352C24.9905 0.860352 24.644 1.01102 24.3878 1.25209L13.6601 12.2208L2.93251 1.25209C2.67639 1.01102 2.34481 0.860352 1.95318 0.860352C1.16966 0.860352 0.581964 1.46303 0.581964 2.23145C0.581964 2.62318 0.717607 2.95466 0.988894 3.22586L12.6658 15.1589C12.952 15.4452 13.2835 15.5958 13.6601 15.5958Z" fill="#222222"/>
</svg>
