<svg width="25" height="28" viewBox="0 0 25 28" fill="none" xmlns="http://www.w3.org/2000/svg">
<path d="M4.77679 27.2325H20.5402C22.9375 27.2325 24.3438 25.8397 24.3438 23.0808V9.21917C24.3438 6.46024 22.9241 5.06738 20.1384 5.06738H4.77679C1.97768 5.06738 0.571426 6.44684 0.571426 9.21917V23.0808C0.571426 25.8531 1.97768 27.2325 4.77679 27.2325ZM4.80356 25.0763C3.46428 25.0763 2.72768 24.3665 2.72768 22.9737V9.32631C2.72768 7.93346 3.46428 7.22363 4.80356 7.22363H20.0982C21.4241 7.22363 22.1875 7.93346 22.1875 9.32631V22.9737C22.1875 24.3665 21.4241 25.0763 20.5 25.0763H4.80356ZM7.1741 5.5897L9.33035 5.60309C9.33035 3.68792 10.5893 2.32185 12.4509 2.32185C14.3125 2.32185 15.5848 3.68792 15.5848 5.60309L17.741 5.5897C17.741 2.62988 15.4509 0.286133 12.4509 0.286133C9.45089 0.286133 7.1741 2.62988 7.1741 5.5897Z" fill="#222222"/>
</svg>
