<svg width="25" height="18" viewBox="0 0 25 18" fill="none" xmlns="http://www.w3.org/2000/svg">
<path d="M24.7076 1.70708L8.70757 17.7071C8.6147 17.8001 8.50441 17.8738 8.38301 17.9241C8.26161 17.9745 8.13148 18.0004 8.00007 18.0004C7.86865 18.0004 7.73853 17.9745 7.61713 17.9241C7.49573 17.8738 7.38544 17.8001 7.29257 17.7071L0.292568 10.7071C0.104927 10.5194 -0.000488281 10.2649 -0.000488281 9.99958C-0.000488281 9.73422 0.104927 9.47972 0.292568 9.29208C0.480208 9.10444 0.734704 8.99902 1.00007 8.99902C1.26543 8.99902 1.51993 9.10444 1.70757 9.29208L8.00007 15.5858L23.2926 0.292079C23.4802 0.104438 23.7347 -0.000976564 24.0001 -0.000976562C24.2654 -0.000976561 24.5199 0.104438 24.7076 0.292079C24.8952 0.47972 25.0006 0.734215 25.0006 0.999579C25.0006 1.26494 24.8952 1.51944 24.7076 1.70708Z" fill="black"/>
</svg>
