<svg width="17" height="17" viewBox="0 0 17 17" fill="none" xmlns="http://www.w3.org/2000/svg">
<path d="M0.803133 16.4355C1.26718 16.8995 2.03423 16.89 2.48879 16.4354L8.616 10.3082L14.7433 16.4355C15.1978 16.89 15.9649 16.8995 16.4289 16.4354C16.8929 15.9714 16.893 15.1949 16.4385 14.7403L10.3112 8.61302L16.4289 2.4953C16.8835 2.04073 16.8929 1.27374 16.4289 0.809692C15.9649 0.345653 15.1884 0.345596 14.7338 0.800164L8.61606 6.91789L2.49833 0.800156C2.04376 0.345586 1.26718 0.345612 0.803133 0.80966C0.339094 1.2737 0.348564 2.04078 0.803133 2.49535L6.92087 8.61309L0.793662 14.7403C0.339093 15.1949 0.339094 15.9714 0.803133 16.4355Z" fill="#222222"/>
</svg>
