<svg width="42" height="42" viewBox="0 0 42 42" fill="none" xmlns="http://www.w3.org/2000/svg">
<path d="M20.9217 41.4108C32.1316 41.4108 41.4127 32.1096 41.4127 20.9197C41.4127 9.70996 32.1115 0.428711 20.9016 0.428711C9.71191 0.428711 0.430664 9.70996 0.430664 20.9197C0.430664 32.1096 9.732 41.4108 20.9217 41.4108ZM20.9217 37.9957C11.4396 37.9957 3.86594 30.402 3.86594 20.9197C3.86594 11.4376 11.4195 3.84389 20.9016 3.84389C30.3839 3.84389 37.9977 11.4376 37.9977 20.9197C37.9977 30.402 30.4039 37.9957 20.9217 37.9957Z" fill="black"/>
<path d="M15.2363 28.996C15.2363 29.92 15.8792 30.5629 16.8234 30.5629H17.6672V32.15C17.6672 32.7327 18.069 33.1343 18.6314 33.1343C19.1939 33.1343 19.5957 32.7327 19.5957 32.15V30.5629H20.9015V32.15C20.9015 32.7327 21.3234 33.1343 21.8658 33.1343C22.4282 33.1343 22.8501 32.7327 22.8501 32.15V30.5027C26.1849 30.141 28.1337 28.2124 28.1337 25.2594C28.1337 22.9893 26.7877 21.3018 24.7185 20.679C26.2052 19.9557 27.2296 18.3687 27.2296 16.6611C27.2296 14.1701 25.522 12.362 22.8501 11.9602V10.333C22.8501 9.75043 22.4282 9.34863 21.8658 9.34863C21.3234 9.34863 20.9015 9.75043 20.9015 10.333V11.8799H19.5957V10.333C19.5957 9.75043 19.1939 9.34863 18.6314 9.34863C18.069 9.34863 17.6672 9.75043 17.6672 10.333V11.8799H16.8234C15.8993 11.8799 15.2363 12.5228 15.2363 13.4669V28.996ZM17.8077 28.2124V22.1053H21.2029C24.0757 22.1053 25.5623 23.1299 25.5623 25.1589C25.5623 27.1477 24.1358 28.1723 21.4238 28.1924L17.8077 28.2124ZM17.8077 19.7548V14.2102H21.243C23.4126 14.2102 24.6582 15.1544 24.6582 16.862C24.6582 18.7504 23.252 19.7951 20.6805 19.7751L17.8077 19.7548Z" fill="black"/>
</svg>
