<svg width="18" height="18" viewBox="0 0 18 18" fill="none" xmlns="http://www.w3.org/2000/svg">
<path fill-rule="evenodd" clip-rule="evenodd" d="M11 16C11.5523 16 12 16.4477 12 17C12 17.5523 11.5523 18 11 18H7C6.44772 18 6 17.5523 6 17C6 16.4477 6.44772 16 7 16H11ZM14 8C14.5523 8 15 8.44771 15 9C15 9.55229 14.5523 10 14 10H4C3.44772 10 3 9.55229 3 9C3 8.44771 3.44772 8 4 8H14ZM17 0C17.5523 0 18 0.447715 18 1C18 1.55228 17.5523 2 17 2H1C0.447716 2 0 1.55228 0 1C0 0.447715 0.447715 0 1 0H17Z" fill="#222222"/>
</svg>
