<svg width="28" height="28" viewBox="0 0 28 28" fill="none" xmlns="http://www.w3.org/2000/svg">
<path d="M13.9458 26.8566C17.669 26.8566 20.7093 21.3521 20.7093 13.9727C20.7093 6.55302 17.6825 1.04855 13.9458 1.04855C10.2093 1.04855 7.18248 6.55302 7.18248 13.9727C7.18248 21.3521 10.2227 26.8566 13.9458 26.8566ZM13.9458 2.66909C16.5709 2.66909 18.9146 7.8923 18.9146 13.9727C18.9146 19.9458 16.5709 25.2226 13.9458 25.2226C11.3209 25.2226 8.97712 19.9458 8.97712 13.9727C8.97712 7.8923 11.3209 2.66909 13.9458 2.66909ZM13.0753 1.23605V26.6021H14.8298V1.23605H13.0753ZM13.9458 18.9816C9.82087 18.9816 6.16462 20.0664 4.28963 21.7941L5.6423 22.9057C7.41016 21.4994 10.2896 20.736 13.9458 20.736C17.6021 20.736 20.4816 21.4994 22.2495 22.9057L23.6021 21.7941C21.7271 20.0664 18.0709 18.9816 13.9458 18.9816ZM26.3074 13.062H1.58426V14.8164H26.3074V13.062ZM13.9458 8.97712C18.0709 8.97712 21.7271 7.8923 23.6021 6.16462L22.2495 5.05302C20.4816 6.44586 17.6021 7.22265 13.9458 7.22265C10.2896 7.22265 7.41016 6.44586 5.6423 5.05302L4.28963 6.16462C6.16462 7.8923 9.82087 8.97712 13.9458 8.97712ZM13.9458 27.6065C21.4191 27.6065 27.6065 21.4057 27.6065 13.9458C27.6065 6.47265 21.4057 0.285156 13.9325 0.285156C6.47265 0.285156 0.285156 6.47265 0.285156 13.9458C0.285156 21.4057 6.48605 27.6065 13.9458 27.6065ZM13.9458 25.7852C7.47712 25.7852 2.10658 20.4146 2.10658 13.9458C2.10658 7.47712 7.46373 2.10658 13.9325 2.10658C20.4013 2.10658 25.7852 7.47712 25.7852 13.9458C25.7852 20.4146 20.4146 25.7852 13.9458 25.7852Z" fill="black"/>
</svg>
