<svg width="24" height="24" viewBox="0 0 24 24" fill="none" xmlns="http://www.w3.org/2000/svg">
<path d="M17.9939 0H6.00611C2.69427 0 0 2.81394 0 6.27289V17.7271C0 21.1861 2.69427 24 6.00611 24H17.9939C21.3057 24 24 21.1861 24 17.7271V6.27289C24 2.81394 21.3057 0 17.9939 0ZM2.11877 6.27289C2.11877 4.0345 3.86291 2.21287 6.00611 2.21287H17.9939C20.1371 2.21287 21.8812 4.0345 21.8812 6.27289V17.7271C21.8812 19.9655 20.1371 21.7871 17.9939 21.7871H6.00611C3.86291 21.7871 2.11877 19.9655 2.11877 17.7271V6.27289Z" fill="white"/>
<path d="M12 17.8338C15.0798 17.8338 17.5867 15.2169 17.5867 11.9989C17.5867 8.78095 15.0811 6.16406 12 6.16406C8.91893 6.16406 6.41333 8.78095 6.41333 11.9989C6.41333 15.2169 8.91893 17.8338 12 17.8338ZM12 8.37836C13.9125 8.37836 15.468 10.0029 15.468 12.0003C15.468 13.9977 13.9125 15.6223 12 15.6223C10.0876 15.6223 8.5321 13.9977 8.5321 12.0003C8.5321 10.0029 10.0876 8.37836 12 8.37836Z" fill="white"/>
<path d="M18.1039 7.10616C18.9332 7.10616 19.6091 6.40161 19.6091 5.53404C19.6091 4.66647 18.9345 3.96191 18.1039 3.96191C17.2732 3.96191 16.5986 4.66647 16.5986 5.53404C16.5986 6.40161 17.2732 7.10616 18.1039 7.10616Z" fill="white"/>
</svg>
