<svg width="35" height="32" viewBox="0 0 35 32" fill="none" xmlns="http://www.w3.org/2000/svg">
<path d="M6.53907 31.5653C8.5731 31.5653 12.7316 29.5161 15.7901 27.3315C26.2918 27.6178 34.1718 21.591 34.1718 13.6958C34.1718 6.11718 26.5782 0 17.086 0C7.59375 0 0 6.11718 0 13.6958C0 18.6378 3.16407 23.0223 7.92522 25.2221C7.24721 26.5329 5.98158 28.3108 5.30357 29.1997C4.50503 30.2544 4.98717 31.5653 6.53907 31.5653ZM8.1211 29.0642C8.00056 29.1093 7.95536 29.019 8.03069 28.9135C8.87444 27.8739 10.0798 26.3069 10.5921 25.3426C11.014 24.5592 10.9085 23.8661 9.9442 23.414C5.21317 21.2143 2.50111 17.7036 2.50111 13.6958C2.50111 7.51842 8.96485 2.48604 17.086 2.48604C25.2221 2.48604 31.6858 7.51842 31.6858 13.6958C31.6858 19.8582 25.2221 24.8907 17.086 24.8907C16.7846 24.8907 16.3175 24.8756 15.7149 24.8604C15.0821 24.8604 14.5999 25.0564 14.0274 25.5083C12.1741 26.8493 9.49219 28.5067 8.1211 29.0642Z" fill="white"/>
<path d="M24.1222 16.0164C25.3275 16.0164 26.3069 15.037 26.3069 13.8317C26.3069 12.6263 25.3275 11.647 24.1222 11.647C22.9168 11.647 21.9375 12.6263 21.9375 13.8317C21.9375 15.037 22.9168 16.0164 24.1222 16.0164Z" fill="white"/>
<path d="M17.086 16.0164C18.2913 16.0164 19.2707 15.037 19.2707 13.8317C19.2707 12.6263 18.2913 11.647 17.086 11.647C15.8806 11.647 14.9012 12.6263 14.9012 13.8317C14.9012 15.037 15.8806 16.0164 17.086 16.0164Z" fill="white"/>
<path d="M10.0647 16.0164C11.255 16.0164 12.2344 15.037 12.2344 13.8317C12.2344 12.6263 11.24 11.647 10.0647 11.647C8.85936 11.647 7.88002 12.6263 7.88002 13.8317C7.88002 15.037 8.85936 16.0164 10.0647 16.0164Z" fill="white"/>
</svg>
