<svg width="48" height="31" viewBox="0 0 48 31" fill="none" xmlns="http://www.w3.org/2000/svg">
<path d="M4.89355 24.0902C4.89355 24.7812 5.27538 25.1631 5.9481 25.1631H42.0754C42.73 25.1631 43.13 24.7812 43.13 24.0902V5.9448C43.13 5.27208 42.73 4.87207 42.0754 4.87207H5.9481C5.27538 4.87207 4.89355 5.27208 4.89355 5.9448V24.0902ZM6.72993 22.9084V7.12662C6.72993 6.8539 6.8572 6.70844 7.12992 6.70844H40.8755C41.1481 6.70844 41.2936 6.8539 41.2936 7.12662V22.9084C41.2936 23.1812 41.1481 23.3267 40.8755 23.3267H7.12992C6.8572 23.3267 6.72993 23.1812 6.72993 22.9084ZM23.93 25.1631C27.8572 25.1631 30.9845 21.2176 30.9845 14.9994C30.9845 8.79936 27.8572 4.87207 23.93 4.87207C20.1117 4.87207 17.0391 8.79936 17.0391 14.9994C17.0391 21.2176 20.1117 25.1631 23.93 25.1631ZM23.93 23.0175C21.3481 23.0175 19.148 19.9449 19.148 14.9994C19.148 10.0721 21.3481 7.01754 23.93 7.01754C26.6208 7.01754 28.8936 10.0721 28.8936 14.9994C28.8936 19.9449 26.6208 23.0175 23.93 23.0175Z" fill="black"/>
<path d="M0.00195312 28.599C0.00195312 29.4718 0.583771 30.0536 1.4565 30.0536H46.5656C47.4383 30.0536 48.002 29.4718 48.002 28.599V1.43539C48.002 0.562659 47.4383 -0.000976562 46.5656 -0.000976562H1.4565C0.583771 -0.000976562 0.00195312 0.562659 0.00195312 1.43539V28.599ZM2.92923 26.599V3.45357C2.92923 3.05357 3.07468 2.9263 3.45649 2.9263H44.5473C44.9475 2.9263 45.0747 3.05357 45.0747 3.45357V26.599C45.0747 26.9808 44.9475 27.1263 44.5473 27.1263H3.45649C3.07468 27.1263 2.92923 26.9808 2.92923 26.599Z" fill="black"/>
</svg>
