<svg width="21" height="21" viewBox="0 0 21 21" fill="none" xmlns="http://www.w3.org/2000/svg">
<path d="M15.1772 20.2687C16.935 20.2687 18.0901 19.7966 19.1046 18.6515C19.185 18.5711 19.2654 18.4807 19.3356 18.4004C19.9384 17.7274 20.2196 17.0644 20.2196 16.4316C20.2196 15.7084 19.7977 15.0354 18.9037 14.4126L15.9808 12.3836C15.0868 11.7609 14.022 11.6906 13.1783 12.5242L12.4049 13.2977C12.1739 13.5287 11.973 13.5387 11.752 13.3981C11.2096 13.0566 10.1147 12.1024 9.37135 11.359C8.58789 10.5856 7.83455 9.72181 7.43276 9.08898C7.30217 8.85795 7.31222 8.6671 7.54325 8.43608L8.30664 7.66264C9.15038 6.81889 9.08008 5.75416 8.45731 4.86019L6.42829 1.93719C5.80553 1.04322 5.13253 0.631389 4.40932 0.621345C3.77651 0.6113 3.11356 0.902595 2.44057 1.50527C2.35017 1.58563 2.26981 1.65594 2.18945 1.72626C1.04436 2.75081 0.572266 3.90594 0.572266 5.64367C0.572266 8.51643 2.34012 12.012 5.58455 15.2564C8.80888 18.4807 12.3144 20.2687 15.1772 20.2687ZM15.1872 18.7218C12.6258 18.772 9.34127 16.8033 6.73967 14.2118C4.11803 11.6002 2.05888 8.20505 2.1091 5.64367C2.12919 4.53876 2.52093 3.58451 3.30441 2.90148C3.37472 2.84121 3.42494 2.79098 3.49526 2.74076C3.7966 2.4796 4.11803 2.33898 4.40932 2.33898C4.70062 2.33898 4.96177 2.44947 5.15262 2.75081L7.10129 5.6738C7.31222 5.98519 7.33231 6.33674 7.02093 6.64813L6.137 7.53206C5.44391 8.22514 5.49414 9.06889 5.99637 9.74186C6.56891 10.5154 7.56334 11.6404 8.33677 12.4037C9.10017 13.1771 10.3156 14.262 11.099 14.8445C11.772 15.3468 12.6158 15.397 13.3089 14.704L14.1928 13.82C14.5042 13.5087 14.8457 13.5287 15.1671 13.7296L18.0901 15.6783C18.3814 15.8792 18.502 16.1302 18.502 16.4316C18.502 16.723 18.3613 17.0444 18.1002 17.3457C18.0399 17.416 17.9997 17.4662 17.9394 17.5366C17.2564 18.32 16.3022 18.7017 15.1872 18.7218Z" fill="#222222"/>
</svg>
