<svg width="17" height="17" viewBox="0 0 17 17" fill="none" xmlns="http://www.w3.org/2000/svg">
<path d="M0.428711 8.71554C0.428711 9.20774 0.840541 9.60948 1.32269 9.60948H7.82157V16.1084C7.82157 16.5906 8.22335 17.0023 8.71554 17.0023C9.20774 17.0023 9.6196 16.5906 9.6196 16.1084V9.60948H16.1084C16.5906 9.60948 17.0023 9.20774 17.0023 8.71554C17.0023 8.22335 16.5906 7.81152 16.1084 7.81152H9.6196V1.32269C9.6196 0.840541 9.20774 0.428711 8.71554 0.428711C8.22335 0.428711 7.82157 0.840541 7.82157 1.32269V7.81152H1.32269C0.840541 7.81152 0.428711 8.22335 0.428711 8.71554Z" fill="#222222"/>
</svg>
