<svg width="21" height="36" viewBox="0 0 21 36" fill="none" xmlns="http://www.w3.org/2000/svg">
<path d="M20.3644 18.294C20.3644 17.7917 20.1637 17.3297 19.7819 16.9681L3.87119 1.37877C3.5096 1.03725 3.06762 0.856445 2.54531 0.856445C1.52075 0.856445 0.717178 1.63993 0.717178 2.68458C0.717178 3.18681 0.918072 3.64886 1.2395 3.99037L15.8645 18.294L1.2395 32.5975C0.918072 32.939 0.717178 33.3811 0.717178 33.9032C0.717178 34.9479 1.52075 35.7315 2.54531 35.7315C3.06762 35.7315 3.5096 35.5507 3.87119 35.189L19.7819 19.6198C20.1637 19.2382 20.3644 18.7961 20.3644 18.294Z" fill="black"/>
</svg>
