<svg width="20" height="35" viewBox="0 0 20 35" fill="none" xmlns="http://www.w3.org/2000/svg">
<path d="M2.01264e-05 17.4375C2.00825e-05 17.9397 0.200763 18.4018 0.582534 18.7634L16.4933 34.3527C16.8549 34.6942 17.2968 34.875 17.8191 34.875C18.8437 34.875 19.6473 34.0915 19.6473 33.0469C19.6473 32.5446 19.4464 32.0826 19.125 31.7411L4.49995 17.4375L19.125 3.13397C19.4464 2.79249 19.6473 2.35037 19.6473 1.8282C19.6473 0.783517 18.8437 -8.30048e-05 17.8191 -8.30944e-05C17.2968 -8.314e-05 16.8549 0.180773 16.4933 0.542488L0.582534 16.1116C0.200763 16.4932 2.01703e-05 16.9353 2.01264e-05 17.4375Z" fill="black"/>
</svg>
