<svg width="27" height="27" viewBox="0 0 27 27" fill="none" xmlns="http://www.w3.org/2000/svg">
<path d="M0.428574 10.9736C0.428574 16.8665 5.22321 21.6611 11.1161 21.6611C13.4464 21.6611 15.5759 20.9112 17.3304 19.6522L23.9197 26.2549C24.2277 26.5629 24.6295 26.7102 25.0581 26.7102C25.9688 26.7102 26.5982 26.0272 26.5982 25.1299C26.5982 24.7013 26.4375 24.3129 26.1562 24.0316L19.6071 17.4424C20.9866 15.6477 21.8035 13.4112 21.8035 10.9736C21.8035 5.08077 17.0089 0.286133 11.1161 0.286133C5.22321 0.286133 0.428574 5.08077 0.428574 10.9736ZM2.71876 10.9736C2.71876 6.33971 6.48215 2.57632 11.1161 2.57632C15.7499 2.57632 19.5134 6.33971 19.5134 10.9736C19.5134 15.6075 15.7499 19.3709 11.1161 19.3709C6.48215 19.3709 2.71876 15.6075 2.71876 10.9736Z" fill="#222222"/>
</svg>
