<svg width="21" height="17" viewBox="0 0 21 17" fill="none" xmlns="http://www.w3.org/2000/svg">
<path fill-rule="evenodd" clip-rule="evenodd" d="M1.438 7.332C7.074 4.94 10.826 3.352 12.71 2.58C18.072 0.393 19.2 0.016 19.924 0C20.084 0 20.439 0.0309998 20.681 0.22C20.874 0.378 20.922 0.582 20.954 0.74C20.987 0.897 21.019 1.227 20.987 1.479C20.697 4.469 19.441 11.722 18.797 15.057C18.523 16.473 17.992 16.945 17.477 16.993C16.349 17.087 15.496 16.269 14.417 15.576C12.71 14.491 11.76 13.814 10.101 12.744C8.185 11.517 9.425 10.841 10.52 9.739C10.81 9.456 15.753 5.051 15.85 4.657C15.866 4.61 15.866 4.421 15.753 4.327C15.641 4.232 15.479 4.264 15.351 4.295C15.174 4.327 12.468 6.089 7.203 9.566C6.43 10.086 5.737 10.337 5.109 10.321C4.417 10.306 3.096 9.944 2.099 9.629C0.889999 9.251 -0.0760008 9.047 0.00499923 8.386C0.0529992 8.04 0.535999 7.694 1.438 7.332Z" fill="white"/>
</svg>
