<svg width="24" height="24" viewBox="0 0 24 24" fill="none" xmlns="http://www.w3.org/2000/svg">
<path d="M15.593 17.5705C10.8776 17.5705 7.04136 13.603 7.04007 8.72797C7.04136 7.4922 8.01463 6.4873 9.20734 6.4873C9.32997 6.4873 9.45129 6.49798 9.56747 6.51933C9.82305 6.56337 10.0657 6.65279 10.289 6.78757C10.3213 6.80759 10.3432 6.83962 10.3484 6.87699L10.8467 10.1239C10.8531 10.1612 10.8415 10.1999 10.817 10.228C10.542 10.5429 10.1909 10.7698 9.79982 10.8832L9.61136 10.9379L9.68235 11.1261C10.3252 12.8183 11.6341 14.1701 13.2721 14.8374L13.4541 14.9121L13.507 14.7173C13.6167 14.3129 13.8362 13.9499 14.1408 13.6657C14.1627 13.6443 14.1924 13.6337 14.2221 13.6337C14.2286 13.6337 14.235 13.6337 14.2428 13.635L17.3833 14.1501C17.4207 14.1568 17.4517 14.1781 17.4711 14.2115C17.6002 14.4424 17.6867 14.6946 17.7305 14.9588C17.7512 15.0763 17.7602 15.2004 17.7602 15.3298C17.7602 16.5643 16.7883 17.5692 15.593 17.5705Z" fill="white"/>
<path d="M23.9548 10.9297C23.7005 7.95908 22.3839 5.20329 20.2476 3.17082C18.0984 1.12634 15.3103 0 12.3943 0C5.99451 0 0.787405 5.38345 0.787405 12C0.787405 14.2206 1.37987 16.3839 2.50159 18.2682L0 23.9933L8.00947 23.1112C9.40225 23.7011 10.8763 24 12.393 24C12.7919 24 13.2011 23.9786 13.6116 23.9346C13.973 23.8946 14.3383 23.8358 14.6972 23.7611C20.0566 22.6415 23.969 17.7238 24 12.0641V12C24 11.6397 23.9845 11.2794 23.9535 10.931L23.9548 10.9297ZM8.31798 20.5983L3.88664 21.0867L5.20971 18.056L4.94509 17.6891C4.92573 17.6624 4.90637 17.6357 4.88443 17.605C3.73561 15.9649 3.12892 14.0271 3.12892 12.0013C3.12892 6.7193 7.28532 2.42216 12.3943 2.42216C17.1807 2.42216 21.2377 6.28292 21.6288 11.2113C21.6494 11.4755 21.6611 11.7411 21.6611 12.0027C21.6611 12.0774 21.6598 12.1508 21.6585 12.2295C21.5604 16.6481 18.5747 20.4008 14.3977 21.3563C14.0788 21.4297 13.7523 21.4858 13.427 21.5218C13.0888 21.5618 12.7416 21.5818 12.3969 21.5818C11.1694 21.5818 9.97666 21.3363 8.84979 20.8505C8.72458 20.7985 8.60194 20.7424 8.48706 20.6851L8.31927 20.601L8.31798 20.5983Z" fill="white"/>
</svg>
